<svg width="167" height="49" viewBox="0 0 167 49" fill="none" xmlns="http://www.w3.org/2000/svg">
<path d="M54.186 9.566H57.748L53.822 28H50.26L54.186 9.566ZM62.6401 9.54H65.4221L71.7141 21.656L74.2881 9.566H77.8501L73.9241 28H71.0381L64.7721 16.17L62.2761 28H58.7141L62.6401 9.54ZM91.4064 25.92C90.5224 26.6827 89.6471 27.246 88.7804 27.61C87.9311 27.9567 87.0471 28.13 86.1284 28.13C85.1404 28.13 84.2391 27.9393 83.4244 27.558C82.6271 27.1593 81.9338 26.622 81.3444 25.946C80.7724 25.27 80.3218 24.4727 79.9924 23.554C79.6804 22.618 79.5244 21.6127 79.5244 20.538C79.5244 19.0473 79.8278 17.6347 80.4344 16.3C81.0411 14.948 81.8471 13.7607 82.8524 12.738C83.8578 11.7153 85.0104 10.9093 86.3104 10.32C87.6104 9.71333 88.9538 9.41 90.3404 9.41C91.9871 9.41 93.3218 9.774 94.3444 10.502C95.3844 11.23 96.0778 12.2093 96.4244 13.44L93.3304 15.416C93.0878 14.4973 92.6284 13.7953 91.9524 13.31C91.2938 12.8247 90.4964 12.582 89.5604 12.582C88.6938 12.582 87.8791 12.7987 87.1164 13.232C86.3538 13.648 85.6778 14.2113 85.0884 14.922C84.4991 15.6153 84.0311 16.4213 83.6844 17.34C83.3551 18.2413 83.1904 19.1773 83.1904 20.148C83.1904 20.824 83.2771 21.4567 83.4504 22.046C83.6411 22.6353 83.9011 23.1467 84.2304 23.58C84.5771 24.0133 84.9931 24.3513 85.4784 24.594C85.9638 24.8367 86.5098 24.958 87.1164 24.958C88.7804 24.958 90.4531 24.1173 92.1344 22.436L92.4204 21.136H88.9104L89.4824 18.51H95.9564L93.9284 28H90.9644L91.4064 25.92ZM97.9913 28L101.917 9.54H109.717C110.411 9.54 111.035 9.68733 111.589 9.982C112.144 10.2593 112.612 10.6407 112.993 11.126C113.375 11.594 113.661 12.14 113.851 12.764C114.059 13.3707 114.163 13.9947 114.163 14.636C114.163 15.312 114.051 15.9793 113.825 16.638C113.6 17.2793 113.288 17.886 112.889 18.458C112.508 19.03 112.049 19.5413 111.511 19.992C110.991 20.4427 110.419 20.798 109.795 21.058L112.291 28H108.235L106.051 21.812H102.853L101.553 28H97.9913ZM107.663 18.666C108.01 18.666 108.348 18.5707 108.677 18.38C109.024 18.172 109.327 17.9033 109.587 17.574C109.847 17.2273 110.055 16.8373 110.211 16.404C110.385 15.9533 110.471 15.4853 110.471 15C110.471 14.3413 110.307 13.7953 109.977 13.362C109.665 12.9113 109.275 12.686 108.807 12.686H104.803L103.529 18.666H107.663ZM119.639 9.54H131.599L130.949 12.686H122.525L121.589 17.132H128.843L128.219 20.044H120.965L119.951 24.854H128.583L127.907 28H115.713L119.639 9.54ZM135.71 9.54H147.67L147.02 12.686H138.596L137.66 17.132H144.914L144.29 20.044H137.036L136.022 24.854H144.654L143.978 28H131.784L135.71 9.54ZM151.781 9.54H154.563L160.855 21.656L163.429 9.566H166.991L163.065 28H160.179L153.913 16.17L151.417 28H147.855L151.781 9.54Z" fill="#31313D"/>
<path d="M52.65 37.9H53.64L54.78 45H53.6L53.32 43.07H50.77L49.68 45H48.5L52.65 37.9ZM53.28 42.24L52.88 39.19L51.14 42.24H53.28ZM57.9541 37.9H59.0841L57.7841 44.01H61.3541L61.1441 45H56.4441L57.9541 37.9ZM64.3624 38.89H62.1424L62.3524 37.9H67.9224L67.7124 38.89H65.4924L64.1924 45H63.0724L64.3624 38.89ZM69.6811 37.9H74.2311L74.0211 38.89H70.6011L70.1711 40.91H73.1311L72.9411 41.84H69.9711L69.5111 44.01H73.0211L72.8111 45H68.1711L69.6811 37.9ZM74.7621 45L76.2721 37.9H79.2221C79.4821 37.9 79.7154 37.9533 79.9221 38.06C80.1288 38.1667 80.3021 38.31 80.4421 38.49C80.5888 38.67 80.6988 38.8767 80.7721 39.11C80.8454 39.3367 80.8821 39.5733 80.8821 39.82C80.8821 40.0867 80.8354 40.35 80.7421 40.61C80.6488 40.87 80.5221 41.1133 80.3621 41.34C80.2021 41.56 80.0121 41.7567 79.7921 41.93C79.5788 42.0967 79.3454 42.22 79.0921 42.3L80.0921 45H78.8221L77.9021 42.53H76.4121L75.8921 45H74.7621ZM78.4321 41.54C78.5988 41.54 78.7588 41.4967 78.9121 41.41C79.0721 41.3167 79.2121 41.1967 79.3321 41.05C79.4521 40.8967 79.5454 40.7233 79.6121 40.53C79.6854 40.3367 79.7221 40.14 79.7221 39.94C79.7221 39.64 79.6488 39.39 79.5021 39.19C79.3554 38.99 79.1688 38.89 78.9421 38.89H77.1921L76.6221 41.54H78.4321ZM83.4393 37.9H84.3193L87.0093 43.02L88.0893 37.91H89.2193L87.7093 45H86.7893L84.1193 40L83.0593 45H81.9293L83.4393 37.9ZM93.5926 37.9H94.5826L95.7226 45H94.5426L94.2626 43.07H91.7126L90.6226 45H89.4426L93.5926 37.9ZM94.2226 42.24L93.8226 39.19L92.0826 42.24H94.2226ZM99.4952 38.89H97.2752L97.4852 37.9H103.055L102.845 38.89H100.625L99.3252 45H98.2052L99.4952 38.89ZM104.814 37.91H105.944L104.434 45H103.304L104.814 37.91ZM107.579 37.9H108.769L109.539 43.59L112.719 37.9H113.909L109.719 45H108.759L107.579 37.9ZM115.613 37.9H120.163L119.953 38.89H116.533L116.103 40.91H119.063L118.873 41.84H115.903L115.443 44.01H118.953L118.743 45H114.103L115.613 37.9ZM125.426 37.9H129.976L129.766 38.89H126.346L125.916 40.91H128.876L128.686 41.84H125.716L125.256 44.01H128.766L128.556 45H123.916L125.426 37.9ZM132.017 37.9H132.897L135.587 43.02L136.667 37.91H137.797L136.287 45H135.367L132.697 40L131.637 45H130.507L132.017 37.9ZM140.18 37.9H144.73L144.52 38.89H141.1L140.67 40.91H143.63L143.44 41.84H140.47L140.01 44.01H143.52L143.31 45H138.67L140.18 37.9ZM145.261 45L146.771 37.9H149.721C149.981 37.9 150.215 37.9533 150.421 38.06C150.628 38.1667 150.801 38.31 150.941 38.49C151.088 38.67 151.198 38.8767 151.271 39.11C151.345 39.3367 151.381 39.5733 151.381 39.82C151.381 40.0867 151.335 40.35 151.241 40.61C151.148 40.87 151.021 41.1133 150.861 41.34C150.701 41.56 150.511 41.7567 150.291 41.93C150.078 42.0967 149.845 42.22 149.591 42.3L150.591 45H149.321L148.401 42.53H146.911L146.391 45H145.261ZM148.931 41.54C149.098 41.54 149.258 41.4967 149.411 41.41C149.571 41.3167 149.711 41.1967 149.831 41.05C149.951 40.8967 150.045 40.7233 150.111 40.53C150.185 40.3367 150.221 40.14 150.221 39.94C150.221 39.64 150.148 39.39 150.001 39.19C149.855 38.99 149.668 38.89 149.441 38.89H147.691L147.121 41.54H148.931ZM157.329 44.13C156.635 44.7433 155.925 45.05 155.199 45.05C154.819 45.05 154.472 44.9733 154.159 44.82C153.852 44.66 153.589 44.4467 153.369 44.18C153.149 43.9133 152.979 43.6 152.859 43.24C152.745 42.88 152.689 42.5 152.689 42.1C152.689 41.5467 152.802 41.0133 153.029 40.5C153.255 39.9867 153.559 39.5333 153.939 39.14C154.319 38.7467 154.752 38.4333 155.239 38.2C155.732 37.9667 156.242 37.85 156.769 37.85C157.415 37.85 157.925 37.9933 158.299 38.28C158.679 38.56 158.935 38.9333 159.069 39.4L158.089 40.02C157.982 39.6333 157.789 39.3433 157.509 39.15C157.235 38.9567 156.905 38.86 156.519 38.86C156.159 38.86 155.815 38.95 155.489 39.13C155.162 39.31 154.875 39.55 154.629 39.85C154.389 40.1433 154.195 40.48 154.049 40.86C153.909 41.2333 153.839 41.6167 153.839 42.01C153.839 42.29 153.875 42.5533 153.949 42.8C154.029 43.0467 154.139 43.2633 154.279 43.45C154.425 43.63 154.602 43.7733 154.809 43.88C155.015 43.9867 155.245 44.04 155.499 44.04C156.192 44.04 156.885 43.69 157.579 42.99L157.739 42.24H156.339L156.519 41.41H158.849L158.089 45H157.149L157.329 44.13ZM162.07 42.44L160.55 37.9H161.78L162.84 41.46L165.44 37.9H166.66L163.19 42.46L162.65 45H161.52L162.07 42.44Z" fill="#5D5D66"/>
<path d="M41.8374 21.4729C38.584 13.5679 32.6717 7.77142 25.0271 6.47085C10.8962 3.17607 -3.46475 17.6854 0.746132 33.9774C1.95427 38.3718 4.15089 42.4321 7.84785 45.0777C8.88813 45.8157 9.99059 46.4586 11.1345 47C11.006 46.9323 10.8755 46.8647 10.747 46.7928C0.0912898 41.4107 -2.98191 25.3323 4.43065 14.9933C9.98023 7.69317 19.0133 5.21469 26.4466 8.69134C19.407 9.58799 13.1032 14.141 10.3222 21.6992C8.55035 28.0117 10.1916 34.9629 14.6636 39.4482C11.2485 38.8096 10.0403 34.413 8.64153 31.2853C10.2641 39.1458 18.1492 44.2677 25.0395 42.8213C18.947 45.1982 12.5001 41.3875 9.20727 35.2991C5.61186 28.1132 6.92983 20.1512 11.149 13.9063C6.68737 16.3277 4.29181 21.3523 3.84834 26.6096C3.04222 33.4931 6.33715 39.5815 11.3023 43.8998C12.8628 45.1665 14.5538 46.1245 16.3069 46.7822C16.1411 46.7124 15.9774 46.6426 15.8137 46.5665C9.84139 43.4937 3.77788 37.1495 5.09586 29.1875C5.65952 33.2013 7.21166 36.8788 8.93372 40.199C8.78245 39.6491 8.63117 39.0993 8.47989 38.5516C10.5252 42.0621 13.7476 43.9674 17.142 45.5133C24.7452 48.6305 33.8198 44.3354 36.6194 35.8701C36.1055 36.9465 35.7429 38.5727 34.5844 39.2664C37.9685 33.9076 38.3602 23.558 31.7226 21.0119C33.1028 25.0489 34.6342 29.6337 32.5785 33.9393C30.8668 37.528 27.8661 40.3533 23.9371 40.7911C18.3771 41.1844 13.3912 37.7755 11.7292 31.7315C9.1596 22.3907 15.2438 13.1069 23.9143 12.2547C36.837 11.155 43.1927 26.415 39.989 38.3232C42.714 33.4931 44.1646 26.9881 41.8374 21.4729Z" fill="url(#paint0_linear)"/>
<defs>
<linearGradient id="paint0_linear" x1="13.4277" y1="54.0699" x2="29.897" y2="2.28456" gradientUnits="userSpaceOnUse">
<stop stop-color="#57B33E"/>
<stop offset="1" stop-color="#7ECC69"/>
</linearGradient>
</defs>
</svg>
