<svg width="967" height="626" viewBox="0 0 967 626" fill="none" xmlns="http://www.w3.org/2000/svg">
<path d="M709.77 398.934C710.878 399.488 711.432 400.042 709.77 398.934V398.934ZM957.996 197.805C955.779 196.697 951.347 196.697 951.347 196.697C951.347 196.697 943.59 188.94 942.482 188.385C941.373 187.277 936.387 183.399 934.724 182.291C933.616 181.183 930.292 178.966 928.63 178.412C927.521 177.858 924.197 176.75 921.427 176.75C918.656 176.75 913.116 176.75 913.116 176.75L912.007 178.412C912.007 178.412 913.67 183.399 912.007 184.507C910.345 185.615 907.575 183.399 907.575 183.399L903.142 178.966C903.142 178.966 902.034 178.412 900.372 178.412C899.264 178.412 894.277 178.966 894.277 178.966L888.736 179.52L886.52 182.291C886.52 182.291 882.087 180.074 882.087 177.858C882.087 175.088 883.195 172.871 882.087 171.763C880.979 170.655 878.209 168.993 878.209 168.993H872.114C872.114 168.993 869.344 170.101 865.465 170.655C861.587 171.209 861.587 171.209 861.587 171.209C861.587 171.209 862.695 167.885 861.033 166.777C859.37 165.668 857.708 165.114 857.708 165.114L854.938 160.682L851.059 158.465L846.072 159.574L841.086 156.249L836.653 154.587C836.099 154.587 832.221 155.141 832.221 155.141L826.126 158.465C826.126 158.465 827.788 159.02 827.234 161.236C826.126 164.006 826.126 165.668 826.126 165.668L823.355 165.114L817.815 164.56L812.274 165.114C812.274 165.114 812.274 162.898 811.166 162.344C810.058 161.236 810.058 161.236 810.058 161.236C810.058 161.236 808.395 170.655 806.733 170.655C805.071 170.655 802.855 167.885 802.301 166.222C801.746 165.114 801.192 161.79 801.192 157.911C801.192 154.033 797.868 146.83 794.544 146.83C791.219 146.83 788.449 144.059 787.341 145.722C786.232 146.83 786.232 150.154 784.57 151.817C782.908 152.925 780.138 156.803 775.705 152.925C771.272 148.492 767.948 147.384 767.948 147.384L763.515 146.83L759.083 145.168L755.758 143.505L752.434 144.614L750.772 145.168C750.772 145.168 750.772 145.168 748.555 146.83C746.339 148.492 745.231 150.708 742.46 150.708C739.69 150.708 739.69 150.708 739.69 150.708C739.69 150.708 752.434 137.411 755.204 135.748C757.975 133.532 760.191 129.654 760.191 127.991C760.191 126.329 760.745 121.342 759.083 119.68C757.42 118.018 755.758 116.91 752.988 115.802C750.218 114.694 747.447 114.139 745.785 114.694C744.123 115.802 740.798 117.464 740.798 117.464C740.798 117.464 741.906 113.031 741.352 111.923C740.244 110.815 738.582 109.707 738.582 109.707L737.474 106.936C737.474 106.936 738.028 106.382 736.366 104.72C735.258 103.058 731.933 101.95 731.933 101.95C731.933 101.95 728.055 105.828 725.838 108.045C723.622 110.815 723.068 112.477 723.068 114.139C723.622 115.248 723.622 116.91 723.622 116.91C723.622 116.91 720.852 117.464 719.743 117.464C718.635 117.464 717.527 120.234 717.527 120.234L714.757 121.342C714.757 121.342 713.094 119.68 712.54 118.572C711.986 117.464 711.432 115.802 711.432 115.802V111.369C711.432 111.369 709.77 113.031 708.662 113.585C707.554 114.139 705.337 116.356 705.337 116.356C705.337 116.356 705.892 117.464 705.892 118.572C705.892 119.68 704.783 121.342 704.783 121.342L700.905 124.113C700.905 124.113 696.472 127.437 693.702 128.545C690.931 129.654 687.607 131.87 685.945 135.194C684.837 138.519 685.391 145.168 685.391 145.168C685.391 145.168 673.201 146.276 671.539 148.492C669.877 151.262 669.877 151.262 669.877 151.262C669.877 151.262 670.431 154.587 670.985 156.803C671.539 159.02 674.863 161.236 675.417 162.344C676.526 163.452 677.08 166.777 677.08 166.777V175.642L674.863 176.196L673.755 171.209C673.755 171.209 674.863 167.331 673.201 165.668C672.093 164.006 669.877 162.344 669.877 162.344C669.877 162.344 667.106 159.02 665.444 157.911C663.228 156.803 663.228 156.803 663.228 156.803L659.903 159.02L657.687 161.79L654.917 155.695L653.254 155.141C653.254 155.141 654.363 158.465 653.254 160.128C652.146 161.79 650.484 163.452 650.484 164.56C650.484 165.668 649.93 167.331 651.038 171.763C652.146 176.196 651.038 181.737 651.038 182.845C651.038 183.953 652.146 184.507 653.808 184.507C654.917 184.507 655.471 183.953 657.133 185.615C658.795 186.723 659.903 188.385 659.903 188.385C659.903 188.385 655.471 186.169 653.808 187.277C652.146 188.386 652.146 191.156 652.146 191.156C652.146 191.156 652.146 196.143 651.038 198.913C649.93 201.683 648.268 205.008 645.497 205.008C642.727 205.008 639.403 202.791 639.403 202.791C639.403 202.791 643.281 201.683 644.389 201.683C645.497 201.129 648.822 197.251 648.822 195.034C649.376 192.818 649.93 191.71 648.822 188.94C647.714 186.169 647.714 175.642 647.714 173.425C648.268 171.209 647.714 171.209 646.605 168.439C645.497 165.668 650.484 160.682 649.376 157.911C648.268 155.141 644.943 153.479 644.943 153.479C644.943 153.479 646.051 150.708 644.389 150.154C643.281 149.6 641.619 151.262 641.619 151.262L640.511 154.587C640.511 154.587 638.848 155.695 638.294 157.357C637.74 159.02 637.186 160.682 637.186 163.452C637.186 166.222 634.97 168.439 633.862 169.547C632.754 170.655 632.754 172.317 632.754 173.425C632.754 174.534 631.645 178.412 633.308 180.628C634.416 182.845 635.524 185.061 635.524 185.061C635.524 185.061 636.632 187.831 636.632 189.494C636.632 190.602 633.308 190.048 633.308 190.048C633.308 190.048 629.983 187.277 627.767 185.615C625.551 183.953 623.334 182.845 621.672 182.845C620.01 182.291 616.131 179.52 616.131 179.52L611.699 176.75L610.591 177.858C610.591 177.858 610.591 180.628 611.699 180.628C612.807 181.183 614.469 181.737 613.915 183.399C613.361 185.061 613.915 188.385 613.915 188.385C613.915 188.385 610.591 185.061 609.482 186.169C608.374 187.277 605.604 187.277 605.604 187.277L602.279 186.169L601.171 188.385L598.401 191.71L595.631 187.831C595.631 187.831 588.982 190.048 587.874 192.264C586.765 194.48 581.779 194.48 581.225 196.697C580.671 199.467 577.9 201.129 577.9 201.129L575.684 196.697L578.454 193.372C578.454 193.372 575.684 189.494 574.576 189.494C573.468 189.494 571.805 189.494 571.805 189.494C571.805 189.494 570.697 191.156 570.697 192.818C570.697 194.48 571.805 200.575 571.805 202.791C571.251 204.454 568.481 204.454 568.481 204.454L565.711 205.008C565.711 205.008 562.94 209.44 562.94 211.657C562.386 213.873 561.832 215.535 561.832 215.535L556.291 214.981L552.967 213.319C552.967 213.319 550.196 213.319 551.305 214.427C552.413 215.535 552.413 217.197 552.413 217.197L551.305 218.86C551.305 218.86 548.534 218.86 547.98 216.089C547.426 213.319 549.088 211.103 547.426 208.332C545.764 205.562 542.993 201.129 542.993 201.129C542.993 201.129 555.737 207.224 557.953 206.67C560.17 206.116 565.711 202.237 566.265 201.129C566.819 200.021 562.94 193.926 561.832 193.372C560.724 192.264 555.737 188.385 551.859 186.169C548.534 183.953 548.534 182.291 545.764 182.291C542.993 182.291 539.115 181.182 539.115 181.182C539.115 181.182 538.007 177.858 538.007 176.75C537.453 175.642 533.574 172.871 533.574 172.871C533.574 172.871 526.925 171.209 523.601 171.209C520.83 171.209 519.168 172.317 516.952 173.98C514.182 176.196 512.519 176.75 509.195 176.75C505.87 177.304 501.992 180.628 501.438 181.737C500.33 182.845 495.343 183.953 494.789 186.169C493.681 188.94 490.356 192.818 490.356 192.818L493.681 194.48L494.789 195.588C494.789 195.588 492.019 205.562 490.356 207.224C488.14 208.886 487.586 213.319 485.924 214.427C484.816 215.535 484.816 217.197 483.153 217.751C481.491 218.306 478.721 219.968 478.721 219.968L474.288 224.4C474.288 224.4 470.41 227.171 469.856 229.387C469.302 231.603 468.747 244.347 469.856 247.117C470.964 249.888 471.518 251.55 473.734 252.104C475.95 252.658 475.95 252.104 478.721 250.442C481.491 248.78 483.707 247.671 483.707 247.671L485.37 248.226L487.586 252.658C487.586 252.658 488.694 256.537 488.694 259.307C489.248 262.077 492.019 267.064 493.681 265.402C495.343 264.294 495.343 262.632 495.343 262.632L499.222 259.861C499.222 259.861 500.884 257.645 500.884 255.983C500.884 254.32 499.776 251.55 500.884 249.888C501.992 248.78 501.992 249.334 503.1 247.671C504.208 246.009 505.87 246.563 505.87 243.793C506.425 241.023 506.425 239.36 504.208 238.252C501.992 237.144 501.992 232.157 501.992 232.157C501.992 232.157 505.87 224.4 508.087 221.63C510.857 218.86 513.073 215.535 513.073 215.535V211.657L515.844 207.778C515.844 207.778 518.614 208.332 520.276 209.44C521.385 210.549 518.614 216.089 518.614 216.089C518.614 216.089 515.844 219.414 515.29 220.522C514.182 221.63 512.519 224.954 512.519 224.954L511.411 229.387C511.411 229.387 511.965 229.941 511.965 232.711C511.965 235.482 511.965 238.806 513.073 239.36C514.182 240.469 515.844 241.577 515.844 241.577L519.722 242.131L525.263 238.252L530.804 239.36L533.574 240.469L529.142 242.131L523.601 243.239C523.601 243.239 520.831 243.239 519.722 244.347C518.614 245.455 516.952 246.563 516.952 246.563C516.952 246.563 515.29 246.563 516.398 248.78C517.506 250.996 519.168 253.766 519.168 253.766L515.844 254.874L513.073 257.645L511.965 262.632L509.195 266.51L508.087 269.28C508.087 269.28 506.979 270.389 505.316 268.726C503.654 267.064 501.992 267.618 501.992 267.618C501.992 267.618 498.667 270.389 495.897 271.497C493.127 272.605 491.464 270.943 491.464 270.943C491.464 270.943 487.032 269.28 486.478 266.51C485.37 263.74 485.924 259.307 485.37 257.645C484.816 255.983 484.262 254.874 483.153 254.874C482.045 254.874 479.275 257.645 479.275 257.645L476.504 261.523L478.167 265.956L478.721 268.726L477.613 270.389C477.613 270.389 475.95 272.051 474.842 272.051C473.734 272.051 469.301 273.159 469.301 273.159L468.193 278.146L464.869 281.47L460.99 283.686C460.99 283.686 459.882 284.794 458.774 286.457C457.666 287.565 458.22 289.227 456.004 290.335C453.787 291.443 451.017 290.335 451.017 290.335L448.247 291.997L442.706 294.768C442.706 294.768 444.922 299.2 446.03 299.755C447.138 300.863 447.138 300.309 448.801 301.417C450.463 302.525 451.017 303.633 451.571 305.849C452.125 308.62 452.679 312.498 450.463 313.606C448.247 314.715 443.814 314.715 443.814 314.715C443.814 314.715 436.057 313.606 434.395 314.16C432.733 315.269 431.624 316.931 431.624 316.931C431.624 316.931 432.733 320.809 432.733 321.918C432.733 323.026 433.841 324.688 432.178 326.35C431.07 328.566 429.962 334.107 429.962 334.107C429.962 334.107 434.395 335.769 436.611 335.769C438.827 335.769 438.827 337.432 438.827 337.432L441.598 339.648L443.814 337.986C443.814 337.986 448.247 336.878 449.355 336.878C450.463 336.878 454.896 331.891 454.896 331.891L456.004 328.012C456.004 328.012 460.436 322.472 462.099 321.363C463.761 320.255 465.423 317.485 465.423 317.485L466.531 312.498L470.964 315.269L477.613 312.498L481.491 311.944C481.491 311.944 487.032 318.039 489.248 320.255C492.019 322.472 494.235 323.026 494.235 323.026C494.235 323.026 497.559 324.134 498.113 327.458C498.668 330.783 494.789 332.445 494.789 332.445L489.802 332.999L492.573 336.323L496.451 337.432L497.559 333.553L500.884 330.783C500.884 330.783 501.992 328.566 501.992 327.458C501.992 326.35 504.208 326.904 504.208 326.904H505.87V324.134L501.992 321.918C501.992 321.918 498.667 319.147 497.559 318.593C496.451 317.485 496.451 317.485 494.789 315.269C493.127 313.052 490.356 312.498 490.356 312.498V310.282L492.573 309.174C492.573 309.174 498.113 314.715 499.776 315.269C501.438 316.377 504.762 317.485 504.762 317.485L506.979 318.039L508.641 324.134L510.857 330.783L513.073 336.323L517.506 339.094L519.722 341.864C519.722 341.864 522.493 343.526 523.601 343.526C524.709 343.526 526.925 342.972 526.925 342.972L528.033 341.31L530.804 340.202L535.236 339.648L538.007 340.756L540.223 338.54L545.21 339.094L544.656 342.418L549.088 344.081L550.196 341.31L554.075 340.756C554.075 340.756 555.737 345.189 555.183 346.297C554.075 347.405 548.534 354.054 548.534 354.054C548.534 354.054 537.453 352.946 535.79 354.608C534.128 355.716 529.696 354.608 526.925 353.5C524.155 352.392 521.385 349.621 519.168 349.621C516.952 349.621 514.182 352.392 512.519 353.5C510.857 354.608 503.1 355.162 500.884 353.5C498.668 351.838 496.451 350.729 495.897 349.621C494.789 348.513 492.573 345.189 492.573 345.189L489.802 344.635C489.802 344.635 487.032 340.756 486.478 339.648C485.37 338.54 484.816 335.215 484.816 335.215L483.153 334.661C483.153 334.661 469.856 335.769 468.747 335.769C467.639 335.769 460.436 337.432 460.436 337.432C460.436 337.432 456.004 341.31 453.233 341.864C450.463 342.418 448.801 342.972 447.138 341.864C445.476 340.756 442.706 340.756 442.706 340.756C442.706 340.756 439.936 346.297 437.165 348.513C434.395 350.729 434.949 353.5 433.841 355.716C432.733 357.932 431.07 363.473 429.408 363.473C427.192 364.027 423.867 367.906 421.651 371.23C419.435 374.001 416.664 381.204 415.556 386.19C414.448 391.177 413.894 400.042 414.448 402.812C415.002 405.583 422.759 417.218 424.421 419.435C426.084 421.651 432.733 428.3 435.503 429.408C438.273 430.516 441.598 430.516 444.368 430.516C447.138 430.516 451.017 430.516 451.017 430.516H454.341C454.341 430.516 464.315 427.746 467.085 426.638C469.856 425.53 471.518 427.746 471.518 427.746L475.396 432.178C475.396 432.178 478.167 432.733 480.937 433.287C483.707 434.395 483.707 435.503 483.707 437.165C483.707 438.827 482.599 444.368 482.599 444.368C482.599 444.368 483.707 447.138 485.924 449.355C488.694 452.125 491.465 455.45 492.019 457.112C492.573 458.774 493.681 462.653 493.681 462.653L493.127 465.977L494.235 470.41C494.235 470.41 493.127 476.504 493.127 478.167C492.573 479.275 490.356 484.816 490.91 488.14C491.465 490.91 493.681 496.451 494.789 498.667C495.897 500.884 497.005 504.208 497.559 506.425C498.113 509.195 497.005 518.614 500.33 521.385C503.1 524.155 504.208 527.479 505.316 530.25C506.424 533.02 505.87 536.345 508.087 539.115C510.857 541.885 514.182 542.993 515.844 541.885C516.952 540.777 521.939 540.777 523.601 540.777C525.817 540.777 533.574 536.345 537.453 533.02C541.331 530.25 542.993 525.263 542.993 525.263C542.993 525.263 546.872 520.83 547.426 517.506C548.534 514.182 551.859 511.965 551.859 511.965C551.859 511.965 554.075 507.533 554.075 505.87C554.075 504.762 554.075 495.897 554.075 495.897C554.075 495.897 564.048 489.802 565.156 487.586C566.265 484.816 568.481 477.613 567.927 475.95C567.373 474.288 563.494 462.099 565.156 456.004C566.819 449.909 572.914 444.368 572.914 444.368C572.914 444.368 583.441 433.841 586.211 431.07C588.982 428.3 591.752 424.975 592.306 423.313C592.86 421.097 595.631 416.11 596.185 414.448C596.739 412.786 593.968 411.678 593.968 411.678C593.968 411.678 590.09 410.57 588.428 411.124C586.765 411.678 577.9 408.353 577.9 408.353C577.9 408.353 588.982 403.921 591.198 403.367C593.968 402.258 606.712 396.718 607.82 395.61C608.928 394.501 612.253 392.285 612.807 390.069C613.915 387.852 615.577 384.528 615.577 384.528L618.348 380.095C618.348 380.095 615.023 375.663 612.807 374.555C610.591 373.447 608.374 371.784 608.374 371.784L609.482 370.676C609.482 370.676 619.456 374.001 621.672 374.001C623.888 374.001 626.105 372.892 628.321 372.892C630.537 372.892 633.862 372.892 633.862 372.892L639.957 377.325C639.957 377.325 644.389 381.758 644.389 383.974C644.389 385.082 646.051 385.636 647.16 385.636C647.714 385.082 651.038 383.974 651.038 383.974C651.038 383.974 652.146 393.393 653.254 395.055C654.363 396.718 656.025 402.812 657.133 405.029C658.241 407.245 661.566 412.786 661.566 415.002C662.12 417.218 662.12 418.327 663.782 419.435C665.444 420.543 666.552 420.543 667.66 419.435C668.768 418.327 670.985 415.002 670.985 415.002L672.647 413.34L673.755 406.137L674.863 400.042C674.863 400.042 681.512 395.055 683.174 393.947C684.837 392.839 689.269 389.515 690.931 387.852C692.594 386.744 697.026 386.744 697.026 386.744C697.026 386.744 701.459 386.744 703.121 386.744C704.229 386.744 706.446 388.961 706.446 388.961C706.446 388.961 709.77 390.069 709.216 392.285C708.662 394.501 708.108 396.718 708.108 396.718C708.108 396.718 710.324 398.38 711.432 399.488L714.203 397.272L716.419 398.38C716.419 398.38 719.189 403.367 719.189 407.799C719.189 412.232 717.527 417.218 717.527 417.218C717.527 417.218 720.297 419.989 720.852 421.651C721.96 423.313 725.284 428.854 725.284 428.854L726.392 433.841C726.392 433.841 728.055 438.273 727.5 436.057C726.392 433.841 722.514 431.624 722.514 431.624L718.635 427.192L711.432 426.084L714.203 431.07L713.649 434.949L716.419 436.611L717.527 440.49L720.297 443.26L723.068 447.693L726.392 448.801C726.392 448.801 733.595 456.004 735.257 457.666C736.92 459.328 740.798 462.099 743.569 463.207C746.339 464.315 751.88 464.315 751.88 464.315L761.853 467.085C761.853 467.085 769.61 467.639 771.826 467.639C773.489 467.639 777.921 469.301 777.921 469.301L781.8 470.41L780.692 467.639L785.678 466.531V470.41C785.678 470.41 791.773 469.856 792.881 469.301C793.989 468.747 797.314 468.747 797.314 468.747L798.422 467.639L801.192 464.869L803.409 468.193L806.179 465.423L808.395 464.315L807.841 460.99C807.841 460.99 803.963 460.99 802.855 460.99C801.747 460.99 795.652 460.99 795.652 460.99C795.652 460.99 793.435 461.544 792.327 462.099C791.219 463.207 789.557 463.207 786.786 462.653C784.016 462.099 780.692 461.544 779.029 462.099C776.813 462.653 772.935 463.207 772.935 463.207C772.935 463.207 766.84 461.544 765.178 461.544C764.069 461.544 760.745 459.882 760.745 459.882C760.745 459.882 750.772 460.436 749.109 459.328C748.001 458.22 745.231 459.882 744.123 457.112C743.015 454.341 739.69 452.679 741.352 451.571C743.569 450.463 744.123 449.355 744.123 449.355C744.123 449.355 741.352 446.584 739.69 445.476C738.028 444.368 736.366 439.935 734.703 436.057C733.041 432.178 734.703 429.962 733.595 427.746C732.487 425.53 727.5 422.205 725.838 418.881C724.176 415.556 723.068 412.786 723.622 411.678C724.176 410.57 724.73 408.353 726.392 408.353C727.5 408.353 729.717 407.245 732.487 410.57C735.257 413.894 736.92 415.002 736.92 416.664C737.474 418.881 740.798 416.11 743.015 415.002C745.231 413.894 749.663 410.57 750.772 408.353C751.88 405.583 751.88 402.258 749.663 400.042C748.001 397.272 741.906 392.839 741.906 390.069C741.352 387.298 744.677 383.42 745.785 383.42C746.339 383.42 748.555 383.42 749.663 383.42C747.447 383.42 750.772 385.636 749.663 386.744C748.555 387.852 746.893 387.852 748.001 389.515C749.109 391.177 750.772 392.285 751.88 391.731C752.988 391.177 755.204 390.623 754.65 388.407C754.096 385.636 753.542 384.528 753.542 384.528C753.542 384.528 765.178 380.095 766.84 378.987C769.056 377.879 774.597 376.217 776.813 371.23C777.921 368.46 781.246 363.473 782.908 360.703C779.583 364.581 784.016 352.946 782.908 350.729C781.8 348.513 779.583 342.972 779.583 342.972C779.583 342.972 776.813 340.756 778.475 339.094C780.138 337.432 783.462 335.769 783.462 334.661C783.462 333.553 782.354 332.445 780.692 332.445C779.029 332.445 777.367 333.553 776.259 331.891C775.151 330.229 778.475 327.458 779.029 326.35C780.138 325.242 785.124 327.458 782.908 326.35C780.692 325.242 786.232 324.688 788.449 326.35C790.665 328.012 792.881 330.229 792.881 330.229C792.881 330.229 794.544 332.999 794.544 334.661C794.544 336.324 795.098 339.094 795.098 339.094C795.098 339.094 796.206 342.418 797.868 342.418C799.53 342.418 800.084 342.418 801.192 341.864C802.301 341.31 803.409 339.094 803.409 339.094L804.517 334.107C804.517 334.107 800.638 330.229 800.084 328.566C798.976 326.904 799.53 325.796 799.53 325.796C799.53 325.796 805.625 322.472 805.625 319.147C806.179 315.823 810.058 314.715 810.058 314.715C810.058 314.715 812.828 315.823 814.49 315.269C816.706 314.16 823.355 307.512 826.68 301.417C830.004 295.322 831.667 294.768 832.775 290.335C833.883 285.903 833.883 277.038 833.883 281.47C833.883 285.903 834.991 275.929 833.329 272.605C832.221 269.28 828.896 268.172 828.896 268.172L824.464 267.064C824.464 267.064 820.585 264.294 823.355 260.415C826.126 256.537 833.329 251.55 834.991 248.78C836.653 246.009 842.748 243.793 842.748 243.793C842.748 243.793 847.181 243.793 848.843 244.901C850.505 246.009 853.275 242.685 854.938 242.685C856.046 242.685 859.37 243.239 859.37 243.239L863.803 246.009L869.898 245.455C869.898 245.455 871.006 242.685 871.56 241.023C872.114 239.914 872.668 235.482 875.438 233.266C878.209 231.049 882.087 230.495 882.087 230.495L884.858 235.482C884.858 235.482 885.966 237.144 887.628 236.036C889.29 234.928 892.061 231.049 893.169 229.387C894.277 227.725 896.493 226.617 896.493 226.617L893.723 233.82C893.723 233.82 885.966 241.023 883.75 243.793C882.087 246.563 883.195 246.563 879.317 249.888C875.438 252.658 873.222 255.983 873.222 255.983C873.222 255.983 871.56 263.74 871.56 267.064C871.56 269.835 871.56 274.267 872.114 277.592C872.668 280.916 873.222 282.578 873.222 282.578C873.222 282.578 875.993 282.024 877.655 280.362C879.317 278.7 883.195 274.821 882.641 273.713C882.087 272.605 883.75 269.28 883.75 269.28C883.75 269.28 885.966 270.389 887.628 268.726C889.29 267.064 889.29 265.956 889.29 263.74C889.29 260.969 891.507 259.861 891.507 259.861C891.507 259.861 892.061 257.091 892.615 255.429C893.169 253.766 893.723 252.104 893.723 252.104L890.398 250.996C890.398 250.996 892.061 249.888 893.169 246.563C894.277 243.239 894.277 243.239 894.277 243.239L900.372 242.131C900.372 242.131 905.913 236.59 908.129 238.806C910.345 241.023 912.007 242.685 913.67 241.577C915.332 240.469 919.764 234.374 921.427 233.266C923.089 232.157 927.521 227.725 929.738 227.725C931.954 227.725 935.833 228.279 935.833 228.279C935.833 228.279 937.495 225.508 936.941 222.184C936.387 219.414 935.833 216.089 935.833 216.089C935.833 216.089 937.495 210.548 939.711 209.994C941.927 209.44 949.685 212.765 949.685 212.765C949.685 212.765 952.455 217.197 954.671 217.197C956.887 217.197 960.766 215.535 960.766 214.427C960.766 213.319 961.32 210.549 963.536 209.44C965.753 208.332 966.307 206.67 966.307 205.562C962.982 203.346 959.658 198.913 957.996 197.805ZM552.413 319.147C549.642 316.931 547.426 316.377 547.426 316.377L542.993 314.715L541.331 316.377L534.128 317.485L531.358 313.052C531.358 313.052 532.466 310.282 533.02 308.62C533.574 307.512 535.79 302.525 537.453 301.971C539.115 300.863 540.223 300.863 541.331 302.525C542.439 304.187 541.885 305.295 542.439 306.958C543.548 308.066 541.885 308.62 544.656 309.174C547.426 309.728 549.088 308.62 549.088 308.62L552.967 307.512C552.967 307.512 552.967 306.403 555.737 308.62C558.508 311.39 565.711 314.715 565.711 314.715L566.819 317.485C566.819 317.485 566.819 320.255 564.602 320.255C562.386 320.809 561.832 323.026 558.508 320.809C555.737 319.147 555.183 321.363 552.413 319.147ZM571.805 405.029C571.805 405.029 569.035 403.367 567.373 402.812C566.265 402.258 564.048 400.042 561.832 396.164C559.616 392.285 558.508 391.731 556.845 388.961C555.183 386.19 556.291 385.636 555.737 384.528C555.183 383.42 554.075 380.095 552.967 378.987C551.859 377.879 551.305 375.109 550.751 372.892C550.196 370.676 548.534 367.352 548.534 367.352L549.642 364.581C549.642 364.581 549.642 364.581 550.751 365.689C551.859 366.798 553.521 369.014 553.521 369.014L554.629 372.892C554.629 372.892 557.399 374.001 560.17 378.987C562.94 384.528 561.832 385.082 561.832 385.082C561.832 385.082 563.494 387.852 566.265 391.177C569.035 394.501 569.035 396.164 569.035 399.488C569.589 402.812 571.805 403.921 571.805 403.921L572.359 407.245L571.805 405.029ZM582.333 308.066C581.225 306.403 583.441 305.295 585.103 303.633C586.211 301.971 587.874 301.971 588.982 301.417C590.09 300.863 594.522 299.755 594.522 299.755L597.847 301.417C597.847 301.417 596.739 303.079 595.077 304.187C592.86 305.295 593.414 305.295 592.306 306.403C591.198 307.512 591.198 309.174 591.198 310.836C591.198 311.944 593.414 314.715 595.631 318.039C598.401 321.363 598.401 321.363 598.401 321.363C598.401 321.363 597.293 325.796 595.631 326.35C593.968 326.904 593.968 326.35 591.198 326.35C588.428 326.35 591.198 326.35 590.09 325.242C588.982 324.134 588.428 324.134 588.428 324.134C588.428 324.134 587.874 321.363 587.319 320.255C586.765 319.147 587.319 318.039 587.319 318.039L586.211 315.269L584.549 311.944C585.103 311.944 583.441 309.728 582.333 308.066ZM600.617 372.892C598.955 373.447 597.293 374.001 594.522 372.892C591.752 371.784 593.414 370.122 591.198 367.352C588.982 364.581 587.874 364.581 586.765 363.473C585.657 362.365 585.657 360.149 585.657 360.149L588.428 359.041C588.428 359.041 589.536 360.149 591.198 360.703C592.306 361.811 592.306 361.811 597.293 366.798C602.28 371.23 600.617 368.46 601.725 369.014C602.834 369.568 604.496 370.676 604.496 370.676C604.496 370.676 602.28 372.338 600.617 372.892ZM618.348 309.728L616.685 312.498C616.685 312.498 612.807 310.836 612.253 308.62C611.699 306.403 613.361 305.849 613.361 305.849L615.577 304.187L621.118 307.512L618.348 309.728ZM781.246 361.257L781.8 360.703C783.462 357.932 782.908 359.041 781.246 361.257ZM645.497 385.636C646.051 385.636 646.605 385.636 645.497 385.636V385.636ZM591.198 474.288L588.428 471.518C588.428 471.518 584.549 475.95 583.441 478.167C582.333 480.383 581.225 483.707 579.008 484.262C576.792 485.37 574.576 485.37 574.576 487.032C574.022 488.14 575.684 493.681 574.576 496.451C573.468 499.222 570.697 501.992 571.805 504.208C572.914 506.979 572.359 508.641 572.914 510.303C574.022 511.965 575.13 513.073 577.346 513.073C579.562 512.519 582.333 510.857 583.441 508.641C584.549 506.425 586.765 502.546 586.765 500.33C586.765 497.559 587.319 493.681 588.982 490.356C590.644 487.032 591.752 483.707 591.752 481.491C591.198 479.829 591.198 474.288 591.198 474.288ZM582.887 467.085L580.671 464.315C580.671 464.315 577.9 465.977 579.562 467.639C580.671 469.302 582.887 467.085 582.887 467.085ZM602.834 453.233L604.496 455.45L606.158 452.679L603.388 451.571L602.834 453.233ZM607.266 470.41L610.037 472.072L611.145 469.856L608.374 468.747L607.266 470.41ZM670.431 415.002L668.214 417.218C668.214 417.218 669.323 421.651 669.323 423.313C669.323 425.53 670.985 427.746 672.093 427.192C673.201 426.638 675.971 424.976 675.417 422.759C674.863 420.543 672.647 417.773 672.647 417.773L670.431 415.002ZM652.146 414.448L654.363 413.34L652.146 410.57L648.268 407.799C648.268 407.799 647.16 409.461 648.268 411.124C649.376 412.786 649.93 413.894 649.93 413.894L652.146 414.448ZM653.254 423.313L650.484 422.205L649.93 426.084L652.7 427.192L653.254 423.313ZM651.038 434.395L653.808 436.611L654.363 433.841L655.471 430.516L651.592 431.07V434.395H651.038ZM651.038 443.814H653.254V439.381H650.484L651.038 443.814ZM779.583 371.784C779.583 371.784 779.029 372.892 777.921 375.109C776.813 377.879 775.151 376.771 776.813 379.541C778.475 382.312 780.138 382.866 780.692 380.649C781.246 378.433 783.462 377.879 783.462 376.217C782.908 374.001 784.57 372.892 784.57 372.892L779.583 371.784ZM800.084 362.365L795.652 367.906V369.568L798.422 368.46C798.422 368.46 799.53 367.352 801.192 365.689C802.301 364.027 800.084 362.365 800.084 362.365ZM782.354 440.49C783.462 441.044 788.449 441.598 789.003 440.49C789.557 439.381 790.665 436.611 790.665 436.611C790.665 436.611 793.435 430.516 792.327 427.192C791.219 423.867 792.881 423.867 792.881 423.867L795.652 422.759L795.098 420.543L796.206 417.773L795.098 416.664L794.544 415.002L793.435 412.232L791.773 409.461L792.327 407.245L790.665 404.475L787.341 402.812L782.908 401.15L785.124 398.38V392.839C785.124 392.839 780.692 390.069 779.583 392.839C778.475 395.61 776.813 397.826 776.813 397.826C776.813 397.826 776.813 399.488 777.367 401.15C777.921 402.812 778.475 405.583 778.475 405.583L776.259 410.015C776.259 410.015 773.489 414.448 770.718 417.773C767.948 421.097 767.948 423.313 767.948 423.313C767.948 423.313 767.394 425.53 765.178 427.746C762.407 429.962 760.745 433.841 757.42 434.395C754.096 435.503 752.988 436.057 752.988 436.057C752.988 436.057 750.772 433.287 749.109 433.287C747.447 432.733 746.339 433.841 746.339 433.841C746.339 433.841 746.893 436.057 747.447 437.719C748.001 439.381 749.109 442.706 750.218 444.922C751.326 447.139 753.542 448.247 753.542 449.355C753.542 450.463 754.65 451.017 755.758 451.017C756.866 451.017 757.42 449.909 759.637 451.017C761.853 452.125 764.069 452.679 765.732 453.233C767.394 453.787 769.056 453.233 769.056 453.233L771.826 456.004L773.489 453.233C773.489 453.233 770.164 452.125 770.164 450.463C770.164 448.801 770.164 443.814 772.935 442.152C775.705 440.49 775.705 437.719 775.705 437.719C775.705 437.719 773.489 434.395 774.043 432.178C774.597 429.962 777.921 430.516 777.921 430.516C777.921 430.516 780.692 428.854 782.354 427.746C784.016 426.638 786.232 424.975 786.232 424.975C786.232 424.975 787.341 423.867 788.449 424.975C789.557 426.084 792.881 427.746 792.881 429.408C792.881 431.07 795.652 431.624 792.881 435.503C790.111 439.381 785.124 439.936 783.462 439.936C782.354 439.381 780.692 441.044 780.692 441.044L776.259 446.584V449.355L777.367 452.125L778.475 455.45V457.666L780.138 460.436H781.8L780.692 457.666L781.246 454.896L784.016 456.004V457.666L786.786 459.882L789.557 460.99L790.665 458.774L789.557 457.112L787.895 456.004C787.895 456.004 789.557 453.787 788.449 453.233C787.341 452.125 787.341 452.125 786.232 450.463C785.124 449.355 785.124 447.693 783.462 447.138C782.354 446.584 782.354 444.922 782.354 444.922C782.354 444.922 781.246 439.936 782.354 440.49ZM856.6 500.884C854.938 499.222 853.83 494.789 851.059 493.681C848.289 492.573 847.181 490.91 847.181 490.91L848.289 488.14L843.302 482.599L842.748 479.829L839.978 477.059L837.761 473.18L836.099 470.41V467.639C836.099 467.639 836.653 467.085 838.315 465.977C839.978 464.869 842.194 463.207 842.194 463.207C842.194 463.207 843.856 462.653 845.518 464.315C847.181 465.423 849.397 468.193 849.397 468.193C849.397 468.193 855.492 472.072 857.154 471.518C858.816 470.964 858.816 470.964 858.816 470.964C858.816 470.964 851.613 460.99 850.505 459.328C849.397 457.666 846.073 452.679 844.41 452.125C842.748 451.571 841.64 451.017 840.532 451.017C839.424 451.017 834.437 449.355 831.667 448.247C828.896 447.138 828.342 446.03 825.572 446.03C822.801 446.03 826.126 444.922 822.801 446.03C820.031 447.138 816.707 448.801 816.707 447.138C816.152 445.476 813.382 443.26 813.382 443.26L807.287 444.368C807.287 444.368 808.395 448.247 810.058 450.463C811.166 453.233 811.72 454.896 811.72 454.896L813.936 454.341C813.936 454.341 820.031 455.45 821.139 456.004C822.247 456.558 825.572 457.112 825.572 458.774C825.572 460.99 823.355 464.315 823.355 464.315C823.355 464.315 821.693 468.193 823.355 468.747C825.018 469.301 826.126 465.977 828.342 465.423C830.558 464.869 832.221 464.869 833.883 468.193C835.545 470.964 835.545 472.626 834.991 474.288C833.883 475.95 833.329 477.059 833.883 480.383C834.437 483.707 836.653 486.478 832.775 487.032C829.45 487.586 828.342 486.478 825.018 484.262C821.139 481.491 820.585 483.153 821.139 479.275C822.247 475.396 822.247 473.734 821.139 473.18C820.031 472.626 818.369 472.626 816.707 473.18C815.044 473.734 812.274 472.072 808.949 472.072C806.179 471.518 804.517 472.626 803.409 474.842C802.301 477.059 801.746 477.613 800.638 480.383C799.53 483.153 798.422 483.707 797.868 482.599C797.314 481.491 796.206 479.829 794.544 479.829C792.881 479.829 791.773 480.937 790.665 482.045C789.557 483.153 790.111 483.153 786.232 485.924C782.354 488.694 781.246 487.586 781.246 488.694C781.246 489.802 782.354 491.464 779.583 493.127C776.813 494.789 776.259 497.559 771.272 497.559C766.286 498.113 761.853 499.222 760.745 503.1C759.637 506.979 757.42 511.411 759.637 516.398C761.853 521.385 764.069 524.709 764.069 528.587C764.069 532.466 762.961 534.128 764.069 538.007C765.178 541.885 766.84 542.439 768.502 542.439C770.164 542.439 772.38 541.331 774.597 540.223C776.813 539.115 779.029 540.777 782.908 539.115C786.786 538.007 788.449 535.79 790.111 534.682C791.773 533.574 795.098 533.02 796.76 533.02C798.422 533.02 801.746 531.912 801.746 531.912C801.746 531.912 802.855 529.696 806.733 532.466C811.166 535.236 814.49 535.236 815.598 537.453C816.706 540.223 818.369 542.439 818.369 542.439C818.369 542.439 819.477 540.777 820.585 540.777C821.693 540.777 825.018 542.439 825.018 542.439L828.896 545.764L831.112 550.196C831.112 550.196 833.883 554.075 835.545 554.629C837.207 555.183 839.424 555.737 839.424 555.737C839.424 555.737 838.869 557.399 840.532 557.399C841.64 557.399 843.302 555.737 843.302 555.737H846.072C846.072 555.737 850.505 552.967 852.167 552.413C853.275 551.859 856.6 553.521 857.708 551.305C858.816 548.534 859.924 537.453 862.695 534.682C865.465 531.912 867.127 526.925 867.127 524.709C867.681 522.493 864.911 509.749 863.803 508.087C861.587 505.87 858.262 502.546 856.6 500.884ZM792.881 454.341C794.544 454.341 793.435 457.666 794.544 454.341C795.652 451.017 795.652 451.017 795.652 451.017H797.868L800.638 449.909L799.53 447.138V443.814V441.598L800.638 440.49V438.827L800.084 437.165L798.422 433.841C798.422 433.841 796.206 437.719 795.652 438.827C795.098 439.936 795.098 443.26 795.098 443.26L793.435 446.03L790.665 450.463L791.219 452.125C791.219 452.125 791.219 454.341 792.881 454.341ZM805.071 442.706L806.733 441.044L803.963 439.936L803.409 441.044L802.301 443.814L803.409 449.909L802.301 451.571V452.679L803.963 453.233L805.625 448.801L804.517 447.693V444.922L805.071 442.706ZM852.167 557.399C852.167 557.399 851.613 560.17 849.397 560.17C846.627 560.724 842.748 559.062 842.748 559.062L841.64 561.278C841.64 561.278 842.748 562.386 843.302 564.602C843.856 566.819 841.086 567.373 843.856 569.035C846.627 571.251 847.181 571.251 848.289 570.697C849.397 570.143 850.505 571.251 851.613 567.927C852.721 565.156 853.276 563.494 852.721 562.386C852.721 561.832 852.167 557.399 852.167 557.399ZM926.967 549.088C926.413 547.98 925.859 546.318 925.859 546.318L921.427 543.548L920.319 540.777L916.44 539.669C916.44 539.669 918.102 544.102 919.764 545.764C921.427 547.98 923.089 545.764 921.981 550.196C920.873 554.629 919.21 556.291 919.21 556.291C919.21 556.291 920.318 557.399 920.873 558.508C921.427 559.616 923.089 557.953 923.089 560.17C923.089 562.386 921.981 562.94 921.981 562.94L917.548 561.832C917.548 561.832 916.994 560.724 915.886 562.94C914.778 565.156 918.102 564.048 912.561 567.373C907.021 571.251 905.913 572.914 904.804 574.022C903.696 575.13 900.926 579.562 900.926 579.562C900.926 579.562 902.034 580.671 903.696 582.333C905.359 583.995 906.467 585.103 906.467 585.103L909.237 583.995C909.237 583.995 913.67 582.333 914.778 578.454C915.886 574.576 916.994 573.468 916.994 573.468L918.656 572.913C918.656 572.913 921.427 568.481 922.535 566.819C923.643 564.602 926.967 564.602 926.967 564.602L928.63 559.616C928.63 559.616 929.738 557.399 931.4 556.291C933.062 555.183 934.17 550.75 934.17 550.75L930.846 549.642C929.184 549.088 927.521 550.196 926.967 549.088ZM879.871 493.127L878.209 494.235L880.425 495.343L879.871 493.127ZM879.871 524.709L882.641 525.263L880.979 522.493L879.871 524.709ZM878.763 531.912L882.087 532.466L879.317 529.696L878.763 531.912ZM874.33 540.223L877.101 540.777L874.884 538.561L874.33 540.223ZM452.679 241.023C452.679 241.023 453.787 238.252 453.787 236.036C453.787 233.266 452.679 233.266 452.679 233.266L451.017 236.59L448.801 238.806L449.909 240.469L452.679 241.023ZM428.854 275.929C428.854 277.038 428.854 279.808 428.854 279.808C428.854 279.808 428.854 280.916 431.07 281.47C433.287 282.578 437.719 278.7 437.719 278.7C437.719 278.7 440.49 272.051 440.49 270.943C441.044 269.835 441.044 268.726 442.152 268.172C443.26 267.618 444.922 267.618 444.922 267.618C444.922 267.618 446.584 267.618 446.584 268.726C446.584 269.835 445.476 272.605 445.476 272.605L443.814 274.821L444.368 277.592L443.814 279.808L442.706 284.24L441.598 287.011C441.598 287.011 444.922 286.457 446.03 286.457C447.138 286.457 451.571 285.349 451.571 285.349L454.896 284.24C454.896 284.24 456.004 283.132 457.666 282.578C458.774 281.47 460.436 277.592 460.436 277.592C460.436 277.592 460.99 275.375 459.328 273.713C457.666 272.051 456.558 269.834 456.558 269.834C456.558 269.834 456.004 267.064 454.896 266.51C453.787 265.402 451.017 260.969 451.017 260.969L449.355 260.415C449.355 260.415 450.463 258.199 450.463 256.537C450.463 254.874 451.571 252.658 449.909 252.104C448.801 250.996 447.138 250.442 447.138 250.442L448.801 247.671L449.909 243.793H447.693L446.584 246.009L441.044 248.226L439.936 249.888H436.611C436.611 249.888 436.057 250.996 436.057 252.658C436.057 253.766 437.165 255.983 437.165 255.983C437.165 255.983 437.719 258.753 437.165 259.861C436.611 260.969 434.395 263.186 434.395 263.186C434.395 263.186 431.624 263.74 430.516 265.956C429.408 268.172 426.084 268.726 427.192 270.943C428.854 272.605 428.854 274.267 428.854 275.929ZM437.165 231.049C438.273 233.82 438.273 233.82 438.273 233.82C438.273 233.82 439.382 229.387 439.936 227.725C440.49 226.063 438.827 225.508 438.827 225.508L436.057 227.171C435.503 227.725 436.611 227.725 437.165 231.049ZM414.448 216.089C415.556 216.089 416.11 214.981 417.773 213.873C419.435 212.765 419.989 209.44 419.989 209.44C419.989 209.44 418.881 206.67 417.773 205.008C416.664 202.791 417.218 202.237 417.218 202.237L414.448 199.467L411.678 200.575L409.461 201.129L407.245 201.683H403.921H401.15L398.38 201.129C398.38 201.129 397.272 200.021 395.61 200.021C394.501 200.021 393.947 200.575 393.947 200.575L392.839 202.237L391.177 205.008V207.224L392.285 207.778L394.501 208.886L393.947 209.994L392.839 210.548L391.731 212.211L392.839 213.319L393.947 214.427V216.643V219.414C393.947 219.414 393.947 219.414 396.718 219.414C397.272 219.414 397.826 219.414 397.826 219.414H398.38C400.596 219.414 401.15 220.522 401.15 220.522L404.475 222.184C404.475 222.184 404.475 222.184 407.245 219.414C410.015 216.643 407.245 219.414 408.907 217.751C412.232 216.089 413.34 216.089 414.448 216.089ZM504.208 69.8134C505.316 71.4757 505.316 71.4757 505.316 71.4757L506.979 72.5838L509.749 73.692L509.195 75.9083C509.195 78.1246 511.411 78.6786 511.411 78.6786C511.411 78.6786 511.965 78.1246 514.182 78.6786C516.398 79.2327 518.614 79.2327 518.614 79.2327L521.385 80.3409L523.047 79.7868L525.817 77.0164L528.588 73.692L529.696 72.0297V69.8134L530.804 67.0431C530.804 67.0431 528.033 65.9349 526.371 65.9349C524.709 65.9349 520.276 63.1646 520.276 63.1646L518.614 62.0564L516.952 60.9482C515.29 62.6105 515.29 62.6105 515.29 62.6105L513.627 63.1646L511.965 61.5023C509.749 60.3942 509.749 60.3942 509.749 60.3942L507.533 60.9482C505.316 62.0564 505.316 62.0564 505.316 62.0564L504.762 64.2727L505.316 65.3808L504.762 66.489C504.762 66.489 503.654 66.489 504.208 68.1512C504.208 69.8134 503.1 68.1512 504.208 69.8134ZM483.153 85.8816L487.032 90.3142V91.9764L488.14 93.6387L489.802 95.3009C489.802 95.3009 490.91 95.3009 490.91 96.9631C490.91 98.6253 490.91 101.396 490.91 101.396L492.019 103.058C492.019 103.058 492.573 102.504 492.573 104.166C492.573 105.828 492.573 105.828 494.235 108.599C495.897 111.369 495.897 111.369 495.897 111.369L500.33 115.248L501.992 109.153L504.762 105.828C504.762 105.828 505.87 106.382 505.87 104.72C505.87 103.058 505.316 101.396 505.316 101.396L506.425 98.6253L507.533 96.409V95.3009L508.641 93.6387V92.5305L511.411 95.3009L512.519 96.9631L513.627 99.7335L513.073 101.396C513.073 101.396 513.073 102.504 511.965 103.612C510.857 104.72 510.857 104.72 510.857 104.72L513.627 105.274C513.627 105.274 514.736 104.72 515.29 106.382C515.844 107.491 514.182 105.274 515.844 107.491C516.952 109.707 516.952 109.707 516.952 109.707L518.06 108.045C518.06 108.045 516.952 109.153 518.06 106.936C519.168 104.72 520.83 103.058 520.83 103.058C520.83 103.058 522.493 103.058 521.939 101.95C520.83 100.842 520.276 99.1794 520.276 99.1794L518.614 98.0713L519.168 95.3009L516.398 93.6387V91.9764L515.29 90.3142L514.182 88.652V86.9898C514.182 86.9898 514.182 85.3275 512.519 84.2194C510.857 83.1113 510.857 83.1112 510.857 83.1112L510.303 80.8949L509.195 79.7868L508.087 78.6786L506.979 77.0164L504.762 74.2461L501.992 71.4757V70.3675L499.776 67.5971L498.667 68.7053L497.005 72.0297L494.789 71.4757L492.019 72.0297H490.91H489.248L486.478 71.4757L484.816 72.5838C484.816 72.5838 485.37 73.1379 484.816 74.2461C484.262 75.3542 485.924 75.3542 485.924 77.0164C485.924 78.6786 485.37 82.0031 485.37 82.0031C485.37 82.0031 488.14 80.8949 485.924 83.1112C483.153 85.8816 483.153 85.8816 483.153 85.8816ZM625.551 117.464C621.118 118.572 619.456 118.572 619.456 118.572L612.253 121.342C612.253 121.342 613.361 119.68 611.145 122.451C609.482 125.221 611.145 128.545 608.374 128.545C605.604 129.099 603.942 129.654 603.942 129.654L603.388 132.424V137.411C603.388 137.411 602.28 138.519 601.725 140.181C600.617 141.843 600.063 144.614 600.063 144.614C600.063 144.614 600.617 145.722 599.509 147.384C598.401 149.046 598.401 147.384 597.293 149.6C596.185 151.817 594.522 154.033 594.522 154.033C594.522 154.033 593.414 157.911 593.414 159.574C593.414 161.236 594.522 162.898 595.631 164.006C596.739 165.114 597.293 166.777 597.847 167.885C598.401 168.993 598.401 168.993 598.401 168.993C598.401 168.993 601.171 170.655 602.834 170.655C604.496 170.655 605.604 170.655 607.266 170.655C608.374 170.655 608.928 169.547 608.928 169.547C608.928 169.547 610.037 168.439 608.374 167.331C607.266 166.222 607.266 166.222 607.266 166.222L605.05 162.898L603.942 158.465L605.604 154.587C605.604 154.587 605.05 155.141 606.712 152.371C607.82 149.6 608.374 147.384 608.374 147.384C608.374 147.384 608.374 147.384 609.482 146.276C610.591 145.168 610.591 145.168 610.591 145.168L612.253 142.397L612.807 138.519L613.361 137.411L615.577 136.857C615.577 136.857 616.685 136.857 617.24 135.748C618.348 134.64 619.456 132.978 619.456 132.978C619.456 132.978 622.226 130.208 623.334 129.099C624.443 127.991 624.442 127.991 624.442 127.991C624.442 127.991 626.105 125.221 627.767 125.221C629.429 125.221 630.537 124.667 630.537 124.667L635.524 120.234L640.511 117.464L641.619 115.802L642.727 113.031L638.294 109.153C638.294 109.153 638.294 110.261 636.078 111.923C633.862 113.585 634.416 113.031 632.2 114.694C628.321 116.356 629.983 116.356 625.551 117.464ZM823.355 134.086L824.464 136.302L825.572 137.411L828.342 134.64L835.545 133.532L838.315 134.64L840.532 133.532L841.64 131.316L842.748 128.545L843.302 127.437L842.194 126.329L839.424 124.113L838.315 123.559L834.991 122.451L833.883 121.342C833.883 121.342 833.883 119.68 832.775 122.451C831.667 125.221 831.667 125.221 831.667 125.221L828.896 123.005L825.572 120.788L823.909 123.559L822.801 126.883C822.801 126.883 822.801 130.762 823.355 131.87C822.801 131.87 823.355 134.086 823.355 134.086ZM853.275 136.857C854.938 137.965 855.492 137.411 857.154 137.411C858.816 137.411 859.37 135.748 860.478 134.64C861.587 133.532 859.37 131.87 859.37 131.87L856.046 130.762C856.046 130.762 852.721 129.654 851.613 129.654C850.505 129.654 847.181 126.883 847.181 126.883L846.627 129.654C846.627 129.654 847.735 131.87 848.843 132.978C849.397 134.086 851.613 135.748 853.275 136.857ZM831.112 149.046L833.329 149.6L837.761 150.154C837.761 150.154 838.315 149.6 840.532 149.6C842.748 149.6 840.532 146.83 840.532 146.83L837.207 144.059L835.545 142.951L833.883 141.843L832.775 140.181L830.558 141.289L829.45 143.505L831.112 146.276L829.45 149.046H831.112ZM720.297 96.409L721.96 98.0713L724.73 95.3009H728.055H732.487C732.487 95.3009 733.595 95.3009 735.257 94.1927C736.366 93.0846 736.92 91.4224 736.92 91.4224L738.028 90.3142V88.652L736.366 85.8816C736.366 85.8816 738.582 86.9898 735.257 84.2194C732.487 81.449 729.717 79.2327 729.717 79.2327L727.5 77.5705L726.392 80.3409C726.392 80.3409 725.284 80.895 724.73 82.5572C723.622 84.2194 723.068 85.8816 723.068 86.9898C723.068 88.0979 723.068 88.652 721.96 90.8683C721.406 93.0846 720.297 96.409 720.297 96.409ZM701.459 64.8268C701.459 64.8268 702.013 67.5971 700.351 68.1512C699.243 68.7053 697.58 69.8134 697.58 69.8134L698.134 72.5838C698.134 72.5838 698.689 74.8001 700.905 75.9083C703.675 77.0164 702.013 76.4623 702.013 76.4623L704.783 78.1246L706.446 80.3409C706.446 80.3409 707.554 82.5572 709.216 84.2194C710.324 85.8816 709.216 84.2194 710.878 85.3276C712.54 86.4357 713.094 86.9898 713.094 86.9898L717.527 88.652C717.527 88.652 719.189 88.652 720.852 86.4357C722.514 84.2194 721.96 80.8949 722.514 79.2327C723.068 77.5705 722.514 73.692 722.514 72.5838C722.514 71.4757 721.406 71.4757 721.406 71.4757L718.635 70.3675C718.635 70.3675 715.865 67.5971 715.865 64.2727C715.311 60.9482 716.973 59.8401 716.973 59.8401C716.973 59.8401 714.757 57.0697 713.094 55.9616C711.432 54.8534 710.324 49.8667 710.324 49.8667L708.108 52.0831L705.892 53.7453C705.892 53.7453 705.891 53.7453 704.783 53.7453C703.675 53.7453 703.675 53.7453 703.675 53.7453V55.9616L703.121 59.8401L702.013 61.5023L700.351 64.2727L701.459 64.8268ZM744.123 96.9631L741.906 94.1927H739.136L741.352 96.9631H744.123ZM744.123 106.936L741.906 104.166L738.028 105.828L742.46 108.599L744.123 106.936ZM818.923 130.208L820.031 129.099L818.923 123.559H816.707C816.707 123.559 817.261 124.113 817.261 126.329C817.815 128.545 818.923 130.208 818.923 130.208ZM820.585 142.951L816.707 139.073L817.815 143.505L820.585 142.951ZM852.721 111.923L851.613 115.802L856.046 114.139L852.721 111.923ZM700.905 51.529L698.134 48.7586L696.472 50.4208L698.689 53.1912L700.905 51.529ZM669.877 57.6238L666.552 55.4075L664.89 57.0697L667.66 59.286L669.877 57.6238ZM576.238 62.0564L579.008 62.6105C579.008 62.6105 580.671 63.1645 581.225 64.2727C581.779 65.3808 582.887 67.5971 582.887 67.5971L586.765 69.8134L588.982 70.9216L593.414 72.0297V69.8134L590.644 65.3808L593.414 64.8268L594.522 65.3808L595.631 65.9349L597.847 66.489H598.955L602.279 65.9349H605.05V67.0431L607.266 68.1512L610.037 67.5971L610.591 68.7053L611.145 69.8134L612.253 70.3675L614.469 69.8134L615.577 68.7053L616.685 67.0431L615.577 65.9349L613.915 63.7186L612.807 62.6105L611.699 61.5023L612.253 60.3942L612.807 59.286L613.915 59.8401L615.577 60.9482C617.794 62.0564 617.794 62.0564 617.794 62.0564H618.902L620.564 60.9482L622.226 59.286L623.888 58.7319L626.105 58.1779L627.213 57.0697L628.321 55.9616L629.429 54.8534L629.983 53.7453L630.537 50.4208V48.2045L629.983 46.5423L628.875 45.4342H626.659L624.997 47.6504L623.334 49.3127C623.334 49.3127 621.672 50.4208 622.226 51.529C622.78 52.6371 622.78 52.6371 622.78 52.6371V54.2993H621.672L620.564 52.6371L617.794 52.0831L616.685 53.1912C613.915 54.8534 613.915 54.8534 613.915 54.8534C613.915 54.8534 612.807 56.5157 612.807 54.8534C612.253 53.1912 612.253 53.1912 612.253 53.1912C611.145 50.4208 611.145 50.4208 611.145 50.4208L612.253 49.3127L613.361 48.2045L613.915 45.4342L612.807 43.2178L612.253 42.1097L613.915 38.7852L612.807 37.123L610.037 38.2312V39.8934L608.928 41.5556L607.82 42.6638L605.05 43.7719L602.834 45.9882L603.942 48.7586V50.9749H602.834L601.725 49.8667L601.171 48.7586C599.509 48.7586 599.509 48.7586 599.509 48.7586L600.617 49.8667C599.509 53.1912 599.509 51.529 599.509 53.1912C599.509 54.8534 599.509 54.8534 599.509 54.8534L600.063 56.5156L602.834 58.7319L603.942 59.286L605.604 59.8401L606.712 61.5023L604.496 62.6105L601.725 61.5023L598.955 59.8401L597.293 60.9482L596.185 62.0564L595.077 62.6105C595.077 62.6105 595.076 63.7186 593.968 62.6105C592.86 61.5023 592.86 61.5023 592.86 61.5023C592.86 61.5023 592.86 59.8401 592.306 57.6238C591.752 55.4075 591.752 55.4075 591.752 55.4075V52.6371L590.644 50.9749L589.536 52.0831C587.32 53.7453 588.982 53.1912 587.319 53.7453C585.657 54.2993 587.874 54.2993 585.657 54.2993C583.441 54.2993 583.441 54.2993 583.441 54.2993L579.008 55.4075L576.238 55.9616L574.576 57.6238L572.914 59.8401L574.022 61.5023L576.238 62.0564ZM611.699 54.2993C612.253 54.8534 612.253 55.4075 611.699 54.2993V54.2993ZM627.213 42.6638V39.8934L626.105 38.7852H624.997L622.226 39.3393L621.672 40.4475L622.78 41.5556L627.213 42.6638ZM543.548 69.8134L546.318 67.0431L544.656 65.3808L539.115 67.5971L537.453 68.7053L540.223 69.8134H543.548ZM531.358 86.9898L535.79 85.8816L533.02 84.2194H529.696L531.358 86.9898ZM585.103 183.399C585.103 184.507 587.319 185.615 587.319 185.615L588.982 183.953L588.428 181.737L585.657 180.628C585.103 180.628 585.103 181.737 585.103 183.399ZM395.61 175.642L390.623 173.425L389.515 170.655C389.515 170.655 388.407 168.439 390.069 168.993C391.177 169.547 392.839 171.209 392.839 171.209L395.61 172.317L397.826 172.871C397.826 172.871 398.38 169.547 398.38 166.777C398.38 164.006 397.272 160.682 397.272 160.682L396.164 158.465C396.164 158.465 400.596 157.911 400.596 156.803C400.596 155.695 399.488 154.033 399.488 154.033L394.501 148.492C394.501 148.492 398.38 150.154 400.596 148.492C402.813 146.83 402.812 144.059 402.812 144.059L403.367 139.627L406.691 137.411C406.691 137.411 403.921 134.64 404.475 133.532C405.029 132.424 405.029 132.424 405.029 132.424L410.015 133.532V128.545L407.245 127.437C407.245 127.437 406.137 126.883 405.029 124.113C403.921 121.342 403.921 121.342 403.921 121.342L406.691 118.572C406.691 118.572 410.015 108.599 408.353 106.936C406.691 105.274 405.029 104.72 405.029 104.72L403.921 100.842L406.691 96.409C406.691 96.409 406.691 93.6387 406.691 91.9764C406.691 90.8683 407.245 89.2061 407.245 89.2061L408.353 86.4357C408.353 86.4357 407.245 83.1112 407.245 84.7735C406.691 86.4357 404.475 80.8949 404.475 80.8949V75.3542L405.583 73.692L408.353 72.0297C408.353 72.0297 410.016 69.2594 408.907 67.5971C407.799 65.3808 411.124 65.3808 411.124 65.3808L413.894 62.6105L412.232 58.7319C412.232 58.7319 417.773 57.6238 417.773 55.9616C417.773 53.7453 418.327 51.529 418.327 51.529C418.327 51.529 422.759 47.0964 423.867 44.8801C424.975 42.1097 419.435 38.7852 419.435 38.7852C419.435 38.7852 416.664 36.5689 415.002 37.6771C412.786 38.7852 413.894 37.123 410.57 41.0016C407.799 44.8801 407.799 44.8801 407.799 44.8801L403.921 45.4342L401.704 41.5556L400.596 42.6638L400.042 44.8801C400.042 44.8801 397.826 45.9882 397.272 47.6504C397.272 48.2045 396.718 48.7586 396.164 49.3127C396.718 45.9882 397.826 40.4475 397.826 39.3393C397.826 38.2312 397.272 36.569 395.61 35.4608C393.947 34.3527 391.731 33.7986 391.731 34.9067C391.731 36.0149 389.515 37.6771 388.961 39.3393C388.407 40.4475 390.069 41.0015 387.298 42.1097C384.528 43.2178 387.298 37.123 387.298 37.123H377.325C377.325 37.123 374.555 36.0149 372.338 37.6771C370.122 38.7852 367.352 40.4475 367.352 40.4475C367.352 40.4475 367.352 39.3393 368.46 37.6771C369.568 36.0149 373.447 34.9067 375.109 34.9067C376.771 34.9067 382.312 34.9067 382.312 34.9067L386.744 35.4608C386.744 35.4608 389.515 32.6904 391.177 32.6904C392.839 32.1364 395.61 29.92 396.718 28.2578C397.826 26.5956 398.934 25.4875 396.164 23.2712C393.393 20.5008 393.393 21.0549 390.623 18.8386C387.852 16.6223 386.19 12.7437 386.19 12.7437C386.19 12.7437 383.974 10.5274 383.42 11.6356C382.866 12.7437 381.758 13.8519 381.758 13.8519L376.771 12.7437C376.771 12.7437 376.771 12.1896 376.217 11.6356C378.987 11.0815 381.758 9.97334 381.758 9.97334L384.528 8.86519C384.528 8.86519 384.528 7.20298 382.866 6.6489C381.204 6.09483 381.758 7.75705 378.987 5.54075C376.217 3.32445 375.109 2.77037 375.109 2.77037L369.568 1.10815L364.581 0L359.595 1.10815C359.595 1.10815 357.378 8.58307e-06 355.162 2.21631C352.946 3.87853 350.729 4.98668 350.729 4.98668C350.729 4.98668 350.175 6.09483 349.067 6.6489C347.959 7.20298 347.959 7.20297 347.959 7.20297C347.959 7.20297 345.189 8.31112 344.081 8.31112C342.972 8.31112 339.648 9.41928 339.648 9.41928C339.648 9.41928 338.54 8.31112 337.986 9.97334C336.878 11.0815 336.878 11.0815 336.878 11.0815C336.878 11.0815 339.648 12.1896 334.661 12.7437C330.229 13.8519 330.229 13.8519 330.229 13.8519L328.566 14.96L328.012 17.1763L329.121 18.2845C329.121 18.2845 329.675 18.8386 330.783 20.5008C331.891 22.163 331.891 22.163 331.891 22.163L332.999 24.3793C332.999 24.3793 333.553 24.9334 334.107 26.0415C335.215 27.1497 335.215 27.1497 335.215 27.1497V27.7037L334.107 29.366L332.999 31.0282C332.999 31.0282 333.553 32.1363 333.553 33.2445C333.553 34.3526 333.553 34.3526 333.553 34.3526L332.445 35.4608L329.121 33.2445C329.121 33.2445 328.012 31.5823 327.458 30.4741C326.35 29.366 324.688 27.1497 324.688 27.1497L324.134 26.0415L322.472 25.4874H320.255H319.147L318.039 26.5956C318.039 26.5956 316.931 27.1497 316.931 28.2578C316.931 29.366 316.931 29.366 316.931 29.366L316.377 28.8119C316.377 28.8119 316.377 29.366 317.485 31.0282C319.701 34.9067 319.701 34.9067 319.701 34.9067L316.377 30.4741L314.16 28.8119H311.944L309.728 28.2578H308.62L304.187 31.0282C304.187 31.0282 301.417 29.92 299.755 31.0282C298.092 32.1363 295.876 32.1363 295.876 32.1363L294.768 33.7986L294.214 34.9067L291.997 36.0149L290.335 37.6771L289.781 39.3393C289.781 39.3393 290.889 40.4475 290.335 42.1097C289.781 43.2178 289.781 43.2178 289.781 43.2178L289.227 44.8801V46.5423L288.119 47.6504L287.011 48.7586C287.011 48.7586 285.903 49.8667 284.24 51.529C283.132 52.6371 283.132 52.0831 281.47 54.8534C279.254 57.6238 278.7 59.286 276.483 60.9482C273.713 63.1645 274.821 63.1646 275.375 64.8268C275.929 66.489 275.929 67.5971 277.037 68.1512C278.146 69.2594 279.808 69.2594 279.808 69.2594C279.808 69.2594 281.47 69.2594 281.47 72.0297C281.47 74.8001 282.578 77.0164 280.916 78.1246C279.808 79.2327 280.916 79.7868 277.592 80.8949C274.267 82.0031 271.497 83.6653 271.497 83.6653C271.497 83.6653 269.835 86.9898 266.51 88.0979C263.186 89.2061 260.415 91.9764 260.415 91.9764C260.415 91.9764 260.969 93.0846 261.523 96.409C262.632 99.1794 261.523 96.9631 263.74 99.7335C265.956 102.504 270.943 103.612 270.389 104.72C269.835 105.828 267.618 108.045 267.618 108.045C267.618 108.045 264.848 106.382 264.848 108.045C264.848 109.707 265.402 112.477 265.402 112.477C265.402 112.477 265.956 113.031 266.51 114.139C267.618 115.248 269.28 118.018 270.943 119.68C272.605 121.342 273.713 122.451 274.821 121.896C275.929 121.342 278.146 120.788 279.808 120.788C281.47 120.788 284.24 120.234 284.24 120.234C284.24 120.234 285.349 119.68 287.011 120.234C288.673 120.788 288.119 121.896 290.889 123.005C293.66 124.113 298.646 126.329 299.2 129.654C300.309 132.978 301.417 134.64 301.971 139.627C302.525 144.614 303.633 145.722 304.187 147.384C304.741 149.6 307.512 154.033 306.958 157.911C305.849 161.79 305.295 162.898 306.403 164.006C307.512 165.114 309.174 165.114 309.174 165.114C309.174 165.114 314.161 165.114 315.269 167.331C316.377 169.547 316.377 169.547 316.377 169.547L310.836 170.655C310.836 170.655 310.836 173.425 309.728 175.088C308.62 176.75 308.62 179.52 310.836 180.628C312.498 181.737 313.606 182.845 314.715 181.737C315.823 180.628 317.485 177.858 318.039 180.074C319.147 182.291 315.269 186.169 315.269 186.169C315.269 186.169 312.498 188.94 312.498 191.71C312.498 194.48 312.498 200.021 313.606 203.345C314.715 206.67 313.606 204.454 315.823 209.44C318.039 214.427 318.593 217.751 318.593 217.751C318.593 217.751 318.593 222.184 320.809 224.954C323.026 227.725 324.688 229.387 326.35 232.711C328.012 236.036 328.012 236.036 328.012 236.036C328.012 236.036 329.121 234.928 331.337 236.59C333.553 237.698 335.215 239.36 336.878 240.469C338.54 241.577 339.094 242.131 339.648 239.36C340.756 236.59 341.864 238.252 342.418 233.266C342.972 228.279 343.526 225.508 343.526 225.508C343.526 225.508 346.297 223.846 346.297 221.63C346.851 219.414 347.959 215.535 348.513 213.873C349.067 212.211 348.513 210.549 350.729 209.44C352.946 208.332 355.162 207.778 355.162 207.778L358.486 207.224C358.486 207.224 364.581 201.129 366.244 199.467C367.906 197.805 370.676 189.494 370.676 189.494C370.676 189.494 383.42 188.385 385.636 186.169C387.853 183.953 393.947 177.858 393.947 177.858L395.61 175.642ZM198.913 70.3675L203.346 76.4623L205.562 80.8949L204.454 82.0031L205.008 85.8816L207.778 90.3142V92.5305L212.211 95.855C212.211 95.855 213.873 96.409 214.981 96.409C216.089 96.409 218.306 95.3009 218.306 95.3009L221.63 94.7468L226.063 97.5172L226.617 99.7335L223.292 100.288L221.076 103.058L223.292 107.491L222.184 109.153C222.184 109.153 219.414 110.815 217.751 111.923C216.089 113.031 215.535 113.031 213.319 113.031C210.548 113.031 210.548 112.477 210.548 112.477C210.548 112.477 205.008 110.261 202.791 109.707C200.575 108.599 200.021 109.153 200.021 109.153L197.805 111.923C197.805 111.923 200.575 115.802 201.129 117.464C202.237 119.126 203.9 125.775 203.9 125.775L201.129 124.113C201.129 124.113 199.467 123.005 198.913 121.342C198.359 120.234 197.251 118.572 197.251 116.91C197.251 115.802 195.588 114.139 195.588 114.139L192.818 113.031H190.048C190.048 113.031 188.386 114.694 186.723 115.802C185.061 116.91 185.061 118.018 185.061 118.018L182.291 115.802C182.291 115.802 181.737 114.694 180.628 114.139C179.52 113.585 177.858 115.802 177.858 115.802C177.858 115.802 179.52 120.234 180.628 123.005C181.737 125.775 186.723 127.991 186.723 127.991C186.723 127.991 188.385 132.424 189.494 133.532C190.602 134.64 195.034 132.424 195.034 132.424L197.805 129.099L199.467 130.208C199.467 130.208 199.467 131.316 200.021 132.978C200.575 134.64 201.129 134.086 202.237 135.748C203.346 137.411 205.008 136.857 206.67 137.411C208.332 137.965 208.886 137.411 209.994 134.64C211.103 131.87 207.224 126.329 207.224 124.667C207.224 123.559 206.116 119.126 206.116 119.126C206.116 119.126 207.224 119.126 209.44 120.234C211.657 121.342 211.657 125.221 211.657 127.437C211.657 129.654 211.103 130.762 211.103 132.424C211.103 134.086 214.981 136.857 216.089 136.857C217.197 137.411 219.414 137.965 221.63 137.965C223.846 138.519 224.4 139.073 226.617 139.073C228.833 139.073 231.049 139.627 231.049 139.627L235.482 136.857C235.482 136.857 238.252 137.965 239.914 137.965C241.023 138.519 243.793 136.302 244.901 135.748C246.009 135.194 246.009 132.978 246.009 132.978C246.009 132.978 246.563 131.87 244.901 129.654C243.793 127.437 244.901 129.654 243.793 127.437C242.685 125.221 243.239 126.329 242.131 124.667C241.023 123.559 240.469 123.559 239.36 123.559C238.252 123.005 237.698 123.005 236.59 123.005C235.482 123.005 233.82 123.559 232.157 124.113C230.495 124.667 229.941 125.221 228.279 126.329C226.617 127.437 224.954 126.883 223.846 126.329C222.738 125.775 219.414 122.451 219.414 120.234C219.414 118.018 220.522 118.018 220.522 118.018C220.522 118.018 224.4 117.464 226.063 117.464C227.725 117.464 230.495 118.018 231.603 118.018C232.712 118.018 233.82 118.572 233.82 118.572L238.806 117.464C238.806 117.464 240.469 116.356 241.577 116.356C242.685 116.356 243.239 117.464 243.239 117.464C243.239 117.464 244.901 118.572 246.009 121.896C247.117 124.667 246.009 121.896 248.226 120.788C250.442 119.68 248.78 116.356 248.78 116.356C248.78 116.356 249.888 116.91 251.55 114.694C252.658 112.477 250.442 110.815 249.888 109.707C248.78 108.599 247.117 106.382 247.117 106.382C247.117 106.382 248.78 105.828 251.55 103.612C254.32 101.396 250.442 98.6253 250.442 98.6253C250.442 98.6253 254.874 97.5172 257.091 96.9631C259.307 95.855 257.645 94.1927 257.645 94.1927L259.861 89.7601V88.652L260.969 85.3276L259.861 84.2194L258.753 82.5572V78.6786L260.969 75.9083L263.74 74.8001C263.74 74.8001 263.74 74.8001 265.402 75.3542C267.064 75.9083 267.064 74.8001 267.064 74.8001L269.28 72.0297L269.835 69.2594C269.835 69.2594 272.605 67.0431 274.267 64.8268C275.929 62.6105 277.592 58.7319 278.7 55.9616C279.808 53.1912 283.132 49.8667 283.686 48.7586C284.24 47.6504 285.349 44.8801 285.349 44.8801C285.349 44.8801 285.349 44.8801 284.24 44.8801C283.132 44.8801 279.808 45.4342 279.808 45.4342L278.7 43.7719C278.7 43.7719 286.457 41.5556 287.565 41.0016C288.673 40.4475 290.335 38.2312 292.552 35.4608C295.322 32.6904 295.322 32.6904 295.322 31.0282C295.876 29.92 295.322 28.2578 295.322 27.1497C295.322 26.0415 294.214 25.4874 294.214 25.4874L291.443 24.9334L290.335 20.5008L289.227 17.7304L284.795 15.5141L280.362 16.0682C280.362 16.0682 279.254 16.0682 277.037 14.4059C274.821 12.7437 274.267 13.2978 272.605 12.7437C271.497 12.1896 268.172 11.6356 268.172 11.6356L263.74 11.0815H258.199L254.874 12.1897L251.55 13.2978L247.672 14.4059L246.009 15.5141H243.239L239.914 16.0682L237.144 18.8386L234.928 22.7171L234.374 25.4874L231.049 26.0415C231.049 26.0415 231.049 26.0415 228.833 25.4874C226.617 24.9334 227.725 26.5956 227.725 26.5956L224.954 31.0282L222.184 32.1363C222.184 32.1363 222.184 32.1363 219.414 33.7986C216.643 35.4608 216.643 34.9067 216.643 34.9067L213.873 37.6771L211.657 41.0016L212.211 43.7719H214.427L214.981 45.9882L216.643 47.6504L216.089 50.4208L218.86 56.5156C218.86 56.5156 221.63 58.732 223.292 59.286C224.4 59.8401 225.509 59.286 225.509 59.286L229.387 60.3942L231.049 61.5023C231.049 61.5023 235.482 61.5023 236.59 60.3942C237.698 59.286 238.806 59.286 239.914 58.7319C241.023 58.1779 244.347 54.2993 244.347 54.2993L245.455 52.6371L247.117 49.3127L246.563 53.7453L247.117 56.5156L244.347 58.1779L240.469 59.8401L239.36 60.9482C239.36 60.9482 237.698 62.0564 236.59 62.0564C235.482 62.0564 235.482 63.1646 235.482 63.1646L233.82 64.8268L231.049 64.2727H226.617C226.617 64.2727 225.509 63.7186 223.846 63.1646C222.184 62.0564 221.63 61.5023 220.522 60.3942C219.414 59.286 217.751 57.0697 217.751 57.0697C217.751 57.0697 217.197 55.4075 217.197 53.7453C217.197 52.6371 216.643 52.083 216.643 51.529C216.089 49.8667 211.103 47.0964 211.103 47.0964L206.116 48.2045L206.67 51.529L204.454 53.1912L203.9 59.286L201.683 60.9482L203.346 65.9349L202.237 69.2594L198.913 70.3675ZM191.156 73.692L193.926 75.3542C193.926 75.3542 195.034 73.692 195.034 73.1379C195.034 72.5838 195.034 68.7053 195.034 68.7053L190.602 67.5971H187.277L189.494 70.9216L191.156 73.692ZM200.575 100.288C203.9 99.1794 204.454 95.855 204.454 95.855C204.454 95.855 205.008 94.1927 204.454 93.0846C203.9 91.9764 202.237 90.3142 202.237 90.3142L198.913 87.5438H196.143C196.143 87.5438 196.143 88.652 196.143 90.3142C196.143 91.9764 196.143 92.5305 196.143 94.7468C196.143 96.9631 195.588 97.5172 197.251 98.6253C197.805 99.7335 197.251 100.842 200.575 100.288ZM207.224 103.612L206.67 100.842L202.237 99.7335L200.021 100.842L199.467 103.612L205.008 104.72L207.224 103.612ZM217.197 104.72L214.427 101.95L212.765 104.166L211.657 105.828L213.319 108.045L216.089 106.936L217.197 104.72ZM176.75 87.5438L177.304 88.652L176.196 91.4224V92.5305L180.074 95.3009L182.291 94.7468L183.953 95.855L184.507 97.5172L182.291 99.1794L183.399 101.396H185.615L191.71 98.0713L190.602 93.6387L188.385 90.8683L187.277 88.0979L185.615 85.3276L181.737 83.6653L178.966 80.3409L176.75 79.2327L173.98 77.5705L172.317 80.3409L171.209 83.1112L173.425 86.4357L176.75 87.5438ZM178.966 106.936C177.858 103.058 175.642 100.288 174.534 99.7335C174.534 99.7335 173.98 104.166 173.98 105.828C173.98 108.045 175.088 110.261 175.088 110.261H179.52C179.52 110.815 179.52 110.815 178.966 106.936ZM154.587 105.274C154.587 105.274 157.357 106.936 159.02 106.382C160.682 105.274 161.79 103.612 161.79 103.612C161.79 103.612 161.236 104.166 162.344 102.504C163.452 100.842 162.898 98.0713 162.898 98.0713C162.898 98.0713 159.02 98.0713 156.803 99.1794C154.587 100.288 153.479 100.288 153.479 100.288C153.479 100.288 153.479 99.1794 151.262 98.6253C149.046 98.0713 148.492 99.7335 148.492 99.7335L151.262 102.504L154.587 105.274ZM157.911 94.7468C157.911 94.7468 160.682 93.6387 162.344 94.1927C164.006 94.7468 164.006 91.4224 164.006 91.4224L160.682 88.652C160.682 88.652 159.574 88.652 157.357 89.7601C155.141 90.8683 152.925 92.5305 152.925 92.5305C155.141 95.3009 157.911 94.7468 157.911 94.7468ZM160.682 117.464L162.344 119.68L163.452 123.005L164.006 125.775L160.128 126.329C160.128 126.329 159.02 121.896 156.249 119.68C153.479 117.464 150.154 116.91 150.154 116.91L146.83 118.018L146.276 122.451L145.168 124.667L143.505 127.437V130.208L146.276 132.978H148.492L151.262 132.424H153.479L151.817 135.194L152.925 137.411C152.925 137.411 152.925 138.519 155.141 138.519C157.357 138.519 159.574 139.627 160.128 137.965C160.682 136.857 161.236 135.194 161.236 135.194C161.236 135.194 164.006 134.64 165.668 134.64C166.777 134.64 168.439 134.086 169.547 134.086C170.655 134.086 173.98 130.208 173.98 130.208L175.642 126.329V123.005L170.655 119.126L167.885 118.018L166.777 115.802L164.56 110.815L162.898 114.139L160.682 117.464ZM175.088 131.87L176.75 132.978C176.75 132.978 179.52 131.87 180.628 130.762C181.737 129.654 180.628 127.991 180.628 127.991H177.304L175.088 131.87ZM129.654 123.559L131.87 123.005L134.64 123.559C134.64 123.559 138.519 120.788 139.073 118.572C140.181 116.356 140.181 116.356 140.181 116.356C140.181 116.356 140.181 119.68 140.181 122.451C140.181 125.221 137.965 126.883 137.965 126.883H140.735C140.735 126.883 141.843 120.788 143.505 119.126C144.614 116.91 145.722 116.356 146.276 114.694C147.384 113.585 146.83 110.261 146.83 110.261V102.504C146.83 102.504 143.505 106.382 140.735 106.382C137.965 106.382 137.965 106.382 137.965 106.382L135.194 109.707L134.086 112.477L131.87 115.248C131.87 115.248 130.762 116.91 129.099 119.68C126.883 122.451 127.991 120.788 127.991 120.788L129.654 123.559ZM188.94 172.871C188.94 172.871 188.94 173.425 188.94 173.98C191.156 174.534 188.94 172.871 188.94 172.871ZM125.775 166.777L126.883 168.993L129.654 167.885L133.532 166.777L134.64 164.006L135.748 161.236L137.965 158.465L139.073 157.357L140.735 156.249V157.911L140.181 160.682L141.843 162.898L142.951 165.114L141.843 166.777C141.843 166.777 140.735 166.777 140.735 167.885C141.289 168.993 141.289 168.993 141.289 168.993C141.289 168.993 142.397 171.763 144.059 171.763C145.168 172.317 147.384 172.871 147.384 172.871C147.384 172.871 149.046 171.763 150.708 171.763C152.371 171.763 151.817 170.655 154.033 172.317C156.803 173.425 156.803 173.425 156.803 173.425C156.803 173.425 154.587 175.088 152.371 175.088C149.6 175.088 151.262 175.088 147.384 175.088C143.505 175.088 143.505 175.088 143.505 175.088C143.505 175.088 139.073 175.642 144.614 177.858C150.154 180.628 145.722 180.074 145.722 180.074L151.817 181.182L152.925 182.291L157.357 186.169H162.898C162.898 186.169 162.344 187.277 164.56 185.061C166.777 182.845 165.668 182.291 168.993 182.291C171.763 182.845 171.763 182.291 173.425 182.291C175.088 182.291 178.966 182.291 181.737 183.399C184.507 184.507 183.953 186.169 184.507 184.507C185.615 182.845 185.615 182.845 186.723 180.628C187.831 178.412 187.831 177.858 188.94 176.196C189.494 175.088 189.494 174.534 189.494 173.98C188.94 173.98 188.386 173.98 187.277 173.425C181.183 171.763 181.183 170.655 181.183 170.655L180.074 166.222C180.074 166.222 177.858 159.574 177.858 158.465C177.858 157.357 177.858 153.479 177.858 153.479L178.966 149.046C178.966 149.046 177.858 146.276 176.75 145.722C175.642 145.168 173.425 145.168 173.425 145.168L170.655 147.384C170.655 147.384 173.425 149.6 171.763 149.6C170.655 149.6 167.885 150.708 167.885 150.708L168.439 157.357C168.439 157.357 166.223 155.695 165.114 154.587C164.006 153.479 164.006 153.479 164.006 153.479L160.128 156.803C160.128 156.803 160.682 155.141 157.911 154.033C155.141 152.925 153.479 152.925 153.479 152.925L152.925 150.154C152.925 150.154 151.817 149.046 150.708 149.046C149.6 149.6 147.938 147.938 147.938 147.938L143.505 141.843C143.505 141.843 141.843 139.627 140.735 139.627C139.627 139.627 136.302 140.181 136.302 140.181L131.87 137.965C131.87 137.965 132.424 139.073 129.654 139.073C126.883 139.073 123.559 139.627 123.559 139.627V142.397C123.559 142.397 124.113 144.614 123.559 145.722C123.005 146.83 123.005 151.817 123.005 151.817C123.005 151.817 122.451 155.141 121.896 156.249C120.788 157.357 120.788 160.682 120.788 160.682L123.559 163.452L125.775 166.777ZM184.507 151.817L183.399 152.371L182.845 155.695C182.845 155.695 186.169 158.465 188.94 161.79C191.71 164.56 193.372 167.885 193.372 167.885L196.143 162.898L198.913 161.236C198.913 161.236 200.021 155.695 198.913 153.479C197.805 151.262 198.359 147.384 198.359 146.276C198.359 145.168 198.359 144.059 196.697 142.951C195.034 141.843 192.818 141.843 192.818 141.843L186.723 145.168L185.615 147.938C185.615 147.938 188.94 150.708 187.277 152.371C186.169 153.479 184.507 151.817 184.507 151.817ZM342.972 448.247C340.756 447.693 339.648 445.476 336.323 444.368C332.999 443.26 330.229 442.152 330.229 442.152L324.134 438.827C324.134 438.827 324.134 436.057 321.363 433.287C318.593 430.516 318.593 427.746 316.931 427.192C315.269 426.638 311.39 424.975 311.39 424.975L303.633 422.205L297.538 416.664L294.768 412.232L290.889 411.124L283.686 411.678L280.916 410.57L273.159 405.029L271.497 406.137L268.726 407.245C268.726 407.245 262.077 406.691 264.294 407.245C267.064 407.799 261.523 408.353 261.523 408.353L259.307 410.015L255.429 412.786C255.429 412.786 253.212 415.002 252.658 416.11C252.658 415.556 248.78 416.664 248.78 416.664C248.78 416.664 246.009 415.556 244.347 415.556C242.685 415.556 238.252 414.448 238.252 414.448L235.482 411.678C235.482 411.678 234.374 412.786 234.374 408.907C234.374 405.029 235.482 407.799 233.82 402.258C232.712 396.718 237.698 395.055 229.387 395.61C221.63 396.164 220.522 394.501 220.522 394.501L216.643 391.731L215.535 388.961C215.535 388.961 217.197 388.961 218.306 388.407C215.535 388.961 223.846 385.636 223.846 385.636L223.292 381.758H216.089C216.089 381.758 213.319 386.19 213.873 384.528C214.427 383.42 209.994 390.623 210.548 389.515C211.103 388.407 204.454 392.285 204.454 392.285L199.467 390.069C199.467 390.069 195.034 378.433 195.034 376.771C195.588 375.109 195.588 370.676 195.588 370.676L196.143 364.581L202.237 360.149C202.237 360.149 208.332 356.824 210.548 358.486C212.765 360.149 216.643 359.595 216.643 359.595C216.643 359.595 221.076 356.824 222.738 356.824C223.846 357.378 227.171 358.486 227.171 358.486C227.171 358.486 229.387 359.041 230.495 359.595C227.171 359.041 234.928 363.473 234.928 364.581C234.928 365.689 234.374 370.122 236.59 371.23C238.806 372.338 241.023 372.338 241.023 372.338C241.023 372.338 243.793 365.689 243.239 364.581C242.131 363.473 237.144 354.608 237.144 354.608C237.144 354.608 244.901 347.405 246.009 346.297C247.117 345.189 250.442 345.189 252.658 340.756C255.429 336.324 255.429 329.675 255.429 329.675C255.429 329.675 265.402 321.918 261.523 323.58C257.091 325.242 269.28 318.593 269.28 318.593L268.172 315.269C268.172 315.269 275.375 309.174 277.037 309.174C278.7 309.174 279.254 311.39 279.254 311.39C279.254 311.39 282.024 310.836 284.795 310.282C287.565 309.728 293.106 305.849 293.66 304.187C294.214 302.525 295.322 304.741 289.781 300.863C284.24 296.984 284.795 294.768 284.795 294.768C284.795 294.768 283.686 292.552 283.132 291.443C282.024 291.443 278.7 290.335 278.7 290.335L276.483 289.227C276.483 289.227 281.47 286.457 282.578 286.457C283.686 286.457 285.349 288.119 285.349 288.119C285.349 288.119 287.011 290.889 288.119 291.443C289.227 291.997 290.889 290.889 290.889 290.889L291.443 288.673C291.443 288.673 292.552 287.011 293.66 286.457C294.768 285.903 296.43 285.903 298.092 284.795C299.755 283.686 302.525 282.024 302.525 282.024C302.525 282.024 296.43 293.106 296.984 294.214C297.538 295.322 299.201 296.984 300.863 296.984C302.525 296.984 306.403 298.092 306.403 298.092L305.849 301.417C305.849 300.863 306.403 299.2 309.174 299.755C311.944 300.863 314.715 301.971 314.715 301.971C314.715 301.971 314.715 299.201 315.269 298.092C315.269 296.984 314.715 291.997 314.715 291.997L313.606 289.227L309.728 287.565L306.958 286.457L305.849 283.686L306.403 278.146C306.403 278.146 304.741 271.497 303.633 270.389C302.525 269.28 301.971 267.618 301.971 267.618C301.971 267.618 297.538 264.294 295.322 262.077C293.106 259.861 290.889 254.874 290.889 254.874L289.227 249.334C289.227 249.334 283.132 238.806 284.795 241.577C287.011 244.347 283.132 235.482 283.132 235.482C283.132 235.482 278.7 239.36 279.254 240.469C279.808 241.577 278.146 243.239 277.037 244.901C275.929 246.009 274.267 246.009 274.267 246.009C274.267 246.009 271.497 246.009 270.943 241.023C269.835 236.036 268.726 233.266 268.726 233.266L263.74 229.387L259.861 226.063L255.429 226.617L249.334 225.508L247.672 227.725C247.672 227.725 246.563 235.482 247.117 232.711C247.672 229.941 247.117 237.144 247.117 237.144L246.009 243.793L248.226 249.334C248.226 249.334 254.875 254.32 249.888 259.861C244.901 265.402 244.901 265.402 244.901 265.402C244.901 265.402 244.901 269.835 244.901 271.497C244.901 273.713 247.672 279.254 245.455 280.362C242.685 281.47 241.577 282.578 239.36 279.254C237.144 275.929 237.144 271.497 236.59 268.726C236.036 265.956 233.266 263.186 233.266 263.186L228.279 262.077C228.279 262.077 224.4 257.645 219.968 255.983C215.535 254.874 209.994 253.212 209.994 253.212C209.994 253.212 203.9 239.914 207.224 246.563C209.994 253.212 203.9 243.239 203.9 243.239C203.9 243.239 206.67 231.603 207.778 229.941C208.886 228.279 213.319 224.4 213.319 224.4L214.981 221.076C214.981 221.076 219.414 218.86 221.076 217.197C222.184 215.535 223.846 209.994 223.846 209.994L227.725 208.886C227.725 208.886 225.509 211.657 224.954 213.319C223.846 215.535 220.522 214.427 223.846 217.751C227.171 221.076 228.279 221.076 228.279 221.076L231.603 218.86L234.374 217.751L240.469 220.522L242.685 218.306C242.685 218.306 241.577 215.535 238.806 212.765C236.036 209.994 234.374 207.778 234.374 207.778L233.82 202.791C233.82 202.791 234.928 201.683 237.144 200.021C239.36 198.359 239.36 193.372 239.36 193.372L238.252 188.94L239.36 186.169C239.36 186.169 238.252 181.737 237.698 180.628C236.59 179.52 234.928 177.858 232.711 177.858C229.941 177.858 228.279 179.52 228.279 179.52V183.953L227.171 186.723L225.509 188.385L224.4 190.602V194.48L222.738 193.926L221.076 190.602L222.184 187.277L221.076 184.507C221.076 184.507 221.63 183.399 219.414 181.737C217.197 180.628 215.535 180.628 215.535 180.628L211.103 177.858L211.657 173.425L207.778 165.114C207.778 165.114 206.67 160.682 206.116 159.02C205.562 157.357 208.332 154.033 208.332 154.033L211.657 152.925C211.657 152.925 212.211 146.83 213.873 145.168C215.535 142.951 215.535 140.735 215.535 140.735L209.994 141.289L207.224 140.181L203.346 139.627L202.237 140.735L200.575 146.276C200.575 146.276 200.021 150.708 200.021 152.371C200.021 154.587 201.129 161.236 200.021 163.452C198.913 165.668 197.805 167.885 197.805 167.885L196.697 171.209L197.805 175.642L200.021 177.858L204.454 180.074L205.008 182.845L202.791 183.399C202.791 183.399 202.237 182.845 200.575 181.182C198.913 179.52 197.251 178.412 197.251 178.412L193.926 177.304L192.818 178.966L190.048 181.737L188.94 182.845L193.372 187.277L190.602 190.048L190.048 192.264C190.048 192.264 186.723 193.372 185.615 193.372C184.507 193.372 181.183 192.264 179.52 190.602C177.858 188.94 175.088 186.169 175.088 186.169L171.763 185.061C171.763 185.061 168.993 186.169 167.331 186.723C166.223 187.277 164.56 188.385 164.006 189.494C163.452 190.602 159.02 192.818 156.249 193.372C153.479 193.926 149.6 191.71 149.6 191.71L151.262 187.831L148.492 185.061L145.168 183.953L141.289 183.399L131.87 179.52C131.87 179.52 132.978 178.412 129.654 178.412C126.883 178.966 125.221 179.52 125.221 179.52C125.221 179.52 125.221 177.304 124.113 176.196C123.005 175.088 121.342 173.98 121.342 176.196C121.342 178.412 120.234 180.074 120.234 180.074C120.234 180.074 119.68 179.52 118.572 177.858C117.464 176.196 114.694 173.425 114.694 173.425L112.477 170.655C112.477 170.655 111.923 171.763 111.923 172.871C111.923 173.98 111.923 173.98 111.923 173.98L110.261 175.088C110.261 175.088 110.261 175.088 109.153 175.088C108.045 175.088 106.382 175.088 106.382 175.088L105.274 176.196L104.166 176.75L103.058 177.304L100.842 180.074L99.1794 180.628L96.9631 180.074C96.9631 180.074 95.3009 178.966 94.1927 180.628C93.0846 181.737 91.4224 183.953 91.4224 183.953L89.2061 185.061L84.2194 181.182L79.7868 180.628C79.7868 180.628 73.692 176.75 70.3675 177.858C67.5972 178.966 65.3809 178.412 65.3809 178.412L62.6105 177.304L56.5157 174.534C56.5157 174.534 56.5157 173.98 54.8534 173.98C53.1912 173.98 55.9616 173.425 53.1912 173.98C50.4209 174.534 47.6505 172.317 47.6505 172.317L46.5423 171.209C46.5423 171.209 46.5423 171.209 45.4342 171.209C44.326 171.209 44.326 170.101 42.6638 169.547C41.0016 168.993 41.0016 168.993 41.0016 168.993L37.6771 167.885L34.9067 169.547C34.9067 169.547 31.0282 169.547 29.9201 170.101C28.8119 170.655 27.7038 175.088 26.5956 175.088C25.4875 175.088 22.7171 177.858 22.7171 177.858L17.7304 182.845L13.2978 185.615L12.1897 187.831C12.1897 187.831 11.0815 191.156 12.7437 192.264C13.8519 193.372 13.8519 193.372 13.8519 193.372L15.5141 193.926L17.7304 196.697L19.9467 199.467L21.6089 200.575L22.7171 202.791L22.163 203.9L19.3926 202.791L16.6222 201.683L15.5141 202.237C15.5141 202.237 13.2978 203.346 12.1897 204.454C10.5274 205.008 10.5274 205.008 10.5274 205.008L7.75706 207.778L8.86523 209.994L9.97337 212.765L11.0815 213.873L12.7437 214.981L14.96 216.089H16.0682H18.8386H21.0549L22.163 215.535C22.163 215.535 21.6089 214.427 23.2712 215.535C24.9334 216.643 26.5956 214.981 25.4875 218.306C24.3793 221.076 23.8252 221.63 20.5008 223.292C17.1763 224.954 16.6223 222.184 14.406 227.725C12.1897 233.266 12.1897 233.82 13.2978 236.036C14.406 238.806 14.96 240.469 17.7304 241.577C20.5008 242.685 20.5008 241.023 22.163 242.685C23.8252 243.793 23.8252 246.009 24.3793 247.117C24.9334 248.226 28.8119 249.888 30.4741 249.888C31.5823 249.888 33.2445 249.334 34.9067 248.78C36.0149 248.226 34.9067 250.442 34.3527 252.658C33.7986 254.874 30.4742 258.753 28.2579 260.415C26.0416 262.077 22.163 261.523 19.3926 264.294C16.6222 267.064 14.406 268.726 11.6356 270.389C8.86523 272.605 0 278.146 0 278.146C0 278.146 12.1897 275.375 15.5141 272.051C18.8386 269.28 20.5008 267.618 20.5008 267.618L21.6089 268.726C21.6089 268.726 21.6089 269.28 24.3793 267.618C26.5956 265.956 26.5956 265.956 26.5956 265.956L27.7037 266.51C27.7037 266.51 30.4741 268.726 30.4741 266.51C30.4741 264.294 30.4741 264.294 30.4741 264.294C30.4741 264.294 33.2445 260.415 34.9067 259.861C36.569 259.307 41.0016 254.874 42.6638 252.104C44.326 249.334 45.4342 247.672 45.4342 246.009C45.4342 244.347 45.9882 241.577 48.2045 239.914C50.4208 238.252 51.529 237.144 51.529 237.144L48.7586 243.793C48.7586 243.793 45.9882 251.55 44.326 254.32C43.2178 257.091 42.6638 258.753 42.6638 258.753C42.6638 258.753 44.326 260.415 45.4342 258.753C46.5423 257.091 48.2045 255.429 49.3127 253.766C50.4208 252.104 51.529 251.55 50.9749 249.888C50.4208 248.226 49.8668 247.672 51.529 246.009C52.6371 244.347 57.0697 239.36 60.3942 239.36C63.7186 239.36 70.3675 240.469 72.0297 240.469C74.246 240.469 81.449 241.577 84.2194 244.347C86.9898 247.117 89.2061 249.334 90.8683 253.212C92.5305 257.091 94.1927 259.307 96.9631 262.632C99.7335 265.402 103.058 267.064 103.058 267.064C103.058 267.064 107.491 271.497 108.045 273.159C109.153 274.821 110.815 274.821 111.923 279.254C113.031 283.686 112.477 283.686 113.031 285.349C114.139 286.457 114.139 286.457 119.126 291.997C124.113 297.538 124.113 302.525 124.113 302.525C124.113 302.525 123.005 315.269 123.005 318.593C122.451 321.918 121.897 325.242 123.005 328.012C124.113 330.783 125.221 331.337 127.437 334.107C129.654 336.878 130.208 336.878 131.87 340.202C133.532 342.972 135.194 345.189 137.965 347.405C140.735 349.621 140.735 349.621 140.735 349.621C140.735 349.621 141.843 351.838 142.951 354.054C144.06 356.824 142.951 356.824 145.168 359.041C147.384 361.257 149.6 360.149 149.6 362.365C149.6 364.581 149.046 366.244 150.708 367.352C151.817 368.46 152.371 367.906 154.033 369.568C155.695 371.23 155.695 372.892 155.695 372.892L158.465 375.109C158.465 375.109 160.128 377.325 161.236 378.987C162.344 380.65 164.006 380.095 164.006 378.987C164.006 377.879 162.344 372.338 160.682 370.676C159.02 369.014 159.02 367.906 157.911 366.798C156.803 365.689 154.587 362.919 154.587 362.919C154.587 362.919 150.154 358.487 150.154 356.824C150.154 354.608 151.817 354.054 151.817 354.054L154.033 356.824C154.033 356.824 156.803 361.257 160.128 365.689C164.006 370.122 166.223 372.892 167.885 375.109C170.101 377.325 171.209 376.771 172.317 379.541C173.426 382.312 173.425 383.974 173.425 385.082C173.425 386.19 174.534 389.515 177.858 392.285C180.628 395.055 191.156 399.488 198.359 401.704C205.562 403.921 208.886 403.921 208.886 403.921L209.994 406.137L212.211 407.799C212.211 407.799 213.319 408.353 214.981 407.799C216.643 407.245 217.751 407.245 217.751 407.245C217.751 407.245 217.751 406.137 219.414 408.353C221.076 410.015 223.846 412.786 223.846 412.786C223.846 412.786 224.954 414.448 225.509 416.11C226.063 417.773 229.941 418.327 231.603 419.989C233.266 421.651 232.711 422.759 234.374 424.421C236.036 425.53 231.603 425.53 238.252 426.084C244.901 426.638 247.672 427.192 247.672 427.192C247.672 427.192 249.334 428.3 248.78 432.178C247.672 436.057 245.455 440.49 243.239 443.26C241.023 446.03 240.469 445.476 240.469 449.355C239.914 453.787 239.36 453.233 239.36 456.004C239.914 458.774 242.685 462.099 245.455 467.085C248.226 471.518 249.888 475.95 252.658 482.045C255.429 488.14 257.091 488.14 263.186 492.019C269.28 495.343 268.726 498.667 268.726 498.667C268.726 498.667 266.51 520.83 265.956 522.493C264.848 524.709 264.848 539.115 262.077 544.656C259.307 549.642 258.753 561.278 258.199 563.494C257.645 565.156 258.199 567.927 256.537 571.251C254.874 574.576 255.429 579.008 255.429 581.225C255.429 583.995 254.32 590.09 254.32 590.09C254.32 590.09 253.212 594.522 253.766 598.955C254.874 603.388 253.766 602.834 254.874 606.712C255.983 610.591 257.645 613.915 259.307 615.577C260.969 617.24 264.294 620.564 267.618 622.226C270.943 623.888 273.713 626.105 275.375 624.997C277.037 623.888 280.916 620.564 280.916 620.564L287.011 619.456C287.011 619.456 279.808 616.685 277.037 614.469C274.267 611.699 275.375 610.591 274.267 608.374C273.159 605.604 272.605 602.834 272.605 602.834V600.063L273.713 598.955L275.375 595.076L277.037 592.306L280.362 588.428L279.808 585.657L276.483 582.333L277.592 579.562L280.362 577.346L281.47 576.792C281.47 576.792 282.578 572.359 283.686 571.805C284.795 570.697 286.457 567.927 286.457 567.927C286.457 567.927 283.686 566.819 283.686 565.156C283.132 564.048 286.457 562.94 287.565 562.386C288.673 561.832 290.335 561.278 290.889 559.062C291.443 556.845 293.66 555.183 293.66 555.183C293.66 555.183 302.525 555.737 303.633 552.413C304.741 549.642 304.187 546.318 303.633 544.102C303.079 541.885 304.187 540.777 304.187 540.777L311.944 541.885L315.823 539.669L319.147 540.777C319.147 540.777 319.701 538.561 319.147 537.453C318.593 536.345 319.147 532.466 319.147 532.466C319.147 532.466 321.918 528.033 323.58 526.371C325.242 524.155 327.458 524.155 326.904 520.276C326.35 516.398 328.012 511.411 331.337 509.195C334.107 506.979 344.081 505.87 344.081 505.87C344.081 505.87 346.851 503.654 346.851 501.438C347.405 499.222 349.621 497.005 349.621 497.005C349.621 497.005 351.838 490.91 352.392 487.032C353.5 483.707 353.5 477.059 353.5 477.059C353.5 477.059 361.811 469.856 362.365 467.085C362.919 464.315 362.919 457.666 362.919 457.666C362.919 457.666 359.595 456.558 357.378 454.341C356.27 452.125 345.189 448.801 342.972 448.247ZM219.968 389.515C220.522 389.515 221.076 389.515 219.968 389.515V389.515ZM315.823 298.646C315.823 298.092 315.823 298.092 315.823 298.646V298.646ZM284.24 290.889C283.686 290.335 283.686 290.889 284.24 291.443C284.795 291.443 284.795 291.443 284.24 290.889ZM242.685 178.412L245.455 177.858V176.75L247.117 175.642L248.78 178.412L246.009 181.182V185.615L247.672 182.845C250.442 183.953 255.429 185.615 255.429 185.615H250.996L251.55 186.723C251.55 186.723 252.658 186.723 253.766 187.277C254.874 187.831 256.537 187.831 257.645 188.94C258.753 190.048 258.753 190.048 258.753 190.048H256.537L254.32 190.602C254.32 190.602 250.996 189.494 250.442 191.71C249.888 193.926 250.442 197.251 250.442 197.251H254.32L255.429 196.143L257.091 194.48H260.415C260.415 194.48 261.523 193.372 261.523 195.588C262.077 197.251 263.74 198.359 261.523 200.575C259.307 202.791 258.199 205.008 258.199 205.008L257.645 208.332C257.645 208.332 260.415 209.44 254.874 209.994C249.334 211.103 248.78 211.103 248.78 212.765C248.78 214.427 249.334 218.306 249.334 218.306L248.226 221.63L252.658 223.292L252.104 219.414C252.104 219.414 254.874 217.751 256.537 217.751C258.199 217.751 260.415 219.968 260.415 219.968C260.415 219.968 264.848 226.063 269.28 228.279C273.713 230.495 275.375 230.495 277.037 231.049C278.146 231.603 281.47 232.711 281.47 232.711V227.171L280.362 224.954L279.808 223.846L283.132 226.617L285.903 219.968C285.903 219.968 284.795 213.873 282.024 212.211C279.254 210.548 277.592 206.116 277.592 205.008C277.592 203.9 277.592 203.9 277.592 203.9L280.362 206.67C280.362 206.67 282.024 209.44 284.24 211.103C286.457 212.211 286.457 212.211 286.457 212.211L288.673 209.994C288.673 209.994 289.781 207.778 291.997 206.116C294.214 204.454 291.998 198.359 289.781 197.251C287.565 196.143 283.686 191.71 283.686 191.71L280.916 189.494L276.483 186.169L277.592 184.507L278.146 181.737C278.146 181.737 275.375 180.074 276.483 178.966C277.592 177.858 276.483 173.98 276.483 173.98L272.051 169.547L269.28 168.439C269.28 168.439 267.618 167.331 266.51 165.668C265.402 164.56 263.186 162.344 263.186 162.344C263.186 162.344 261.523 161.236 260.415 160.682C259.307 159.574 259.307 159.574 259.307 159.574L257.091 156.803L254.874 155.141C252.104 153.479 252.104 151.262 252.104 151.262L249.334 146.276L244.347 144.059C244.347 144.059 243.793 143.505 242.131 144.059C240.469 144.614 237.698 145.168 237.698 145.168L233.82 144.059L232.157 144.614C232.157 144.614 231.049 143.505 229.387 143.505C228.279 143.505 224.4 143.505 224.4 143.505C224.4 143.505 220.522 147.938 219.414 149.046C218.306 150.154 216.643 151.817 216.643 153.479C216.643 155.695 215.535 162.344 215.535 163.452C214.981 164.56 216.643 166.222 216.643 166.222L217.751 168.993C217.751 168.993 217.751 170.101 220.522 172.871C223.292 175.642 225.509 175.642 225.509 175.642C225.509 175.642 231.603 175.088 233.82 176.75C236.036 177.858 237.144 181.182 237.144 181.182L239.914 178.966L242.685 178.412ZM297.538 601.171C297.538 601.171 296.43 601.171 295.322 602.834C294.214 604.496 295.322 605.604 295.322 605.604L298.092 606.158L302.525 605.604L304.741 602.834L301.417 601.171H297.538ZM252.104 381.204C249.334 379.541 247.672 379.541 247.672 379.541L245.455 378.987L242.131 377.325L239.36 375.663L236.59 374.555L234.374 377.325L233.266 379.541L235.482 380.095L239.914 381.204C239.914 381.204 244.347 381.758 246.009 383.42C247.672 385.082 250.442 385.636 250.442 385.636L253.766 387.852L259.307 388.961L259.861 386.744L257.645 385.636C257.645 385.636 255.983 384.528 254.874 384.528C254.32 383.42 255.429 382.866 252.104 381.204ZM262.632 392.285L266.51 393.393C266.51 393.393 268.172 392.839 269.28 392.285C270.389 391.731 273.713 391.731 273.713 391.731L273.159 390.623L272.051 389.515L270.389 388.407L263.186 386.744C263.186 386.744 264.294 387.298 262.632 389.515C260.969 391.731 262.632 392.285 262.632 392.285ZM295.876 405.583C295.876 405.583 295.876 397.826 293.66 395.055C291.443 392.285 289.781 391.177 289.781 391.177L287.011 389.515H282.578H278.146L278.7 390.623L277.592 392.839H280.916H286.457C286.457 392.839 289.227 393.947 290.335 395.61C291.443 396.718 293.106 398.38 293.66 400.596C294.214 403.367 292.552 408.353 292.552 408.353L295.876 405.583ZM214.981 439.381C214.981 439.381 213.319 440.49 213.319 442.152C213.319 443.26 216.089 444.922 216.089 444.922L217.197 445.476L218.86 444.368V441.598L217.197 440.49L214.981 439.381ZM861.033 487.032L858.816 488.14L861.587 489.248L861.033 487.032ZM859.924 499.222C861.032 499.776 863.803 503.654 863.803 503.654L867.127 502.546L862.695 497.005C862.141 497.559 858.262 498.667 859.924 499.222ZM869.344 282.024L866.573 288.119L865.465 290.889L864.911 292.552L863.803 294.214C863.803 294.214 861.587 296.43 857.154 299.2C852.721 301.971 851.059 305.295 851.059 305.295C851.059 305.295 843.302 310.282 839.424 308.066C834.991 305.849 836.099 300.863 836.099 300.863L838.87 299.755L837.761 294.214L838.315 290.335L841.086 288.119C841.086 288.119 841.64 285.349 839.978 282.024C838.315 278.7 838.87 278.146 838.315 274.267C837.207 269.835 837.207 269.28 837.207 269.28L835.545 271.497L833.883 273.713L834.437 281.47C834.437 281.47 835.545 285.349 834.991 287.565C834.437 290.335 833.883 298.646 833.883 298.646L832.775 300.863L833.329 306.958L831.112 313.052L828.896 315.823L826.126 317.485L827.788 321.363L828.896 325.796L826.126 332.445L823.355 336.323L816.707 337.986L812.274 338.54C812.274 338.54 808.949 341.31 807.841 341.31C806.733 341.31 805.071 343.526 803.963 344.635C802.855 345.743 802.301 348.513 802.301 348.513C802.301 348.513 801.746 352.946 803.963 354.608C806.179 356.824 806.179 354.608 806.179 354.608L812.828 348.513L815.598 347.405C815.598 347.405 818.369 348.513 818.923 347.405C820.031 346.297 824.464 343.526 824.464 343.526L828.342 344.635L828.896 341.864L832.775 339.648C832.775 339.648 833.883 331.891 833.883 330.229C833.883 328.566 834.437 329.121 837.207 324.134C839.978 319.701 835.545 323.026 833.883 322.472C832.221 321.918 834.991 316.377 834.991 316.377C834.991 316.377 836.099 317.485 837.761 315.823C838.869 314.16 841.64 314.715 847.735 313.052C853.83 311.944 852.167 308.066 853.275 306.403C854.384 304.741 859.37 301.417 861.587 299.2C863.803 296.984 864.357 296.984 868.235 292.552C872.668 288.119 872.668 284.795 872.668 284.795L871.56 283.132L869.344 282.024ZM939.157 169.547C940.819 169.547 942.482 168.439 942.482 168.439L943.59 166.222L942.482 164.006C942.482 164.006 939.711 164.56 938.049 164.56C935.833 164.56 936.387 163.452 934.17 165.668C931.954 167.885 931.954 168.993 931.954 168.993L935.279 169.547C934.724 169.547 937.495 169.547 939.157 169.547ZM597.847 457.112L598.955 458.774L601.725 458.22L600.617 456.004L597.847 457.112Z" fill="#E2E7EE"/>
</svg>
