<svg width="32" height="25" viewBox="0 0 32 25" fill="none" xmlns="http://www.w3.org/2000/svg">
<path d="M0 17.0475C0 15.0366 0.400771 12.9647 1.20231 10.8318C2.03468 8.66849 3.09827 6.64229 4.39306 4.7532C5.71869 2.86411 7.09056 1.27971 8.50867 0L15.5838 3.70201C14.3507 5.9872 13.395 8.12005 12.7168 10.1005C12.0694 12.0506 11.7457 14.3967 11.7457 17.1389V25H0V17.0475ZM16.4162 17.0475C16.4162 15.0366 16.817 12.9647 17.6185 10.8318C18.4509 8.66849 19.5145 6.64229 20.8092 4.7532C22.1349 2.86411 23.5067 1.27971 24.9249 0L32 3.70201C30.7669 5.9872 29.8112 8.12005 29.1329 10.1005C28.4855 12.0506 28.1618 14.3967 28.1618 17.1389V25H16.4162V17.0475Z" fill="#171724"/>
</svg>
